<svg xmlns="http://www.w3.org/2000/svg" viewBox="0 0 1200 1200" fill="none" stroke="#a8a2ff" stroke-width="0.55" stroke-linejoin="round"><path d="M1184.0 600.0L1182.5 590.6L1178.1 581.9L1171.0 574.4L1161.5 568.7L1150.0 565.2L1137.1 564.3L1123.4 566.2L1109.4 571.1L1095.8 578.8L1083.2 589.4L1072.2 602.3L1063.3 617.4L1056.8 634.0L1053.1 651.6L1052.2 669.6L1054.3 687.4L1059.1 704.2L1066.5 719.7L1076.0 733.1L1087.2 744.2L1099.6 752.6L1112.5 758.0L1125.3 760.6L1137.4 760.2L1148.2 757.2L1157.2 751.9L1163.9 744.6L1167.9 736.0L1169.0 726.7L1167.2 717.1L1162.4 708.1L1154.9 700.1L1144.9 693.8L1132.8 689.5L1119.2 687.8L1104.5 688.9L1089.5 692.9L1074.8 699.8L1060.9 709.5L1048.5 721.8L1038.0 736.1L1029.9 752.2L1024.5 769.4L1022.0 787.1L1022.4 804.7L1025.6 821.6L1031.4 837.1L1039.5 850.8L1049.3 862.2L1060.5 870.9L1072.3 876.8L1084.3 879.7L1095.6 879.7L1105.8 876.9L1114.2 871.7L1120.5 864.5L1124.2 855.9L1125.0 846.2L1122.9 836.3L1117.9 826.7L1110.0 818.1L1099.5 810.9L1086.9 805.8L1072.6 803.1L1057.2 803.1L1041.3 805.9L1025.5 811.8L1010.4 820.4L996.7 831.6L984.8 845.1L975.2 860.4L968.3 876.9L964.1 894.1L962.9 911.3L964.6 927.9L968.9 943.3L975.6 956.9L984.2 968.3L994.2 977.2L1005.1 983.2L1016.1 986.2L1026.8 986.3L1036.4 983.6L1044.4 978.4L1050.4 971.1L1053.8 962.1L1054.5 952.1L1052.2 941.6L1047.0 931.3L1038.9 921.7L1028.1 913.6L1015.2 907.3L1000.4 903.4L984.4 902.1L967.7 903.7L951.0 908.2L934.9 915.5L920.0 925.6L906.8 937.9L895.9 952.1L887.5 967.7L882.0 984.1L879.3 1000.7L879.5 1016.8L882.5 1031.8L887.9 1045.2L895.4 1056.5L904.4 1065.2L914.3 1071.1L924.7 1074.1L934.8 1074.2L943.9 1071.4L951.7 1065.9L957.4 1058.3L960.8 1048.9L961.4 1038.3L959.1 1027.1L953.9 1015.9L945.7 1005.3L934.9 996.0L921.8 988.5L906.7 983.2L890.3 980.5L873.0 980.6L855.6 983.6L838.7 989.5L822.9 998.1L808.7 1009.1L796.6 1022.1L787.0 1036.5L780.1 1052.0L776.2 1067.7L775.2 1083.1L777.0 1097.6L781.3 1110.5L787.8 1121.4L795.9 1129.9L805.2 1135.6L814.9 1138.4L824.6 1138.2L833.5 1135.2L841.1 1129.4L846.9 1121.4L850.3 1111.4L851.1 1100.1L849.0 1088.1L843.9 1075.9L836.0 1064.2L825.3 1053.7L812.2 1044.7L797.1 1038.0L780.5 1033.7L762.9 1032.2L745.1 1033.6L727.6 1037.8L711.0 1044.9L696.0 1054.4L683.0 1066.0L672.4 1079.3L664.5 1093.6L659.6 1108.3L657.5 1122.9L658.3 1136.6L661.7 1149.0L667.4 1159.4L674.9 1167.5L683.6 1172.9L693.0 1175.4L702.4 1174.9L711.3 1171.5L719.0 1165.4L724.9 1156.8L728.6 1146.3L729.8 1134.2L728.1 1121.3L723.5 1108.1L716.0 1095.2L705.7 1083.3L692.9 1073.0L677.9 1064.6L661.4 1058.7L643.9 1055.6L625.8 1055.3L608.0 1057.9L591.0 1063.3L575.4 1071.2L561.7 1081.4L550.4 1093.3L541.8 1106.3L536.0 1120.0L533.2 1133.6L533.2 1146.6L536.0 1158.3L541.0 1168.2L548.1 1175.8L556.5 1180.8L565.7 1183.0L575.1 1182.2L584.1 1178.4L592.1 1171.8L598.4 1162.7L602.6 1151.6L604.4 1138.8L603.4 1125.0L599.5 1110.7L592.6 1096.7L582.9 1083.5L570.7 1071.7L556.3 1061.8L540.1 1054.3L522.8 1049.4L504.9 1047.4L487.0 1048.3L469.9 1052.1L454.0 1058.4L439.9 1067.1L428.1 1077.6L418.9 1089.4L412.6 1102.0L409.2 1114.6L408.8 1126.8L411.0 1137.8L415.8 1147.1L422.5 1154.3L430.8 1158.9L440.1 1160.7L449.7 1159.5L459.1 1155.4L467.5 1148.5L474.5 1138.9L479.5 1127.2L482.1 1113.7L482.0 1099.1L479.0 1083.9L473.0 1068.7L464.2 1054.3L452.8 1041.1L439.2 1029.7L423.6 1020.7L406.8 1014.2L389.3 1010.5L371.7 1009.7L354.6 1011.8L338.7 1016.6L324.5 1023.8L312.5 1033.0L303.1 1043.5L296.4 1055.0L292.7 1066.7L292.0 1078.1L294.0 1088.5L298.6 1097.3L305.4 1104.0L313.8 1108.3L323.3 1109.8L333.3 1108.4L343.2 1104.0L352.3 1096.8L360.2 1086.8L366.1 1074.6L369.7 1060.6L370.7 1045.2L368.9 1029.2L364.1 1013.1L356.4 997.5L346.1 983.1L333.4 970.4L318.8 959.8L302.8 951.8L285.9 946.6L268.8 944.3L252.1 944.8L236.4 948.2L222.3 953.9L210.3 961.8L200.8 971.2L194.1 981.7L190.3 992.6L189.5 1003.2L191.5 1013.0L196.2 1021.4L203.1 1027.8L211.8 1031.9L221.7 1033.2L232.3 1031.7L242.9 1027.2L252.9 1019.7L261.8 1009.6L268.8 997.1L273.7 982.6L276.0 966.8L275.5 950.0L272.1 933.1L265.8 916.6L256.8 901.1L245.3 887.2L231.8 875.3L216.8 866.0L200.7 859.3L184.4 855.6L168.3 854.8L153.0 856.8L139.3 861.3L127.5 868.0L118.2 876.5L111.6 886.0L107.9 896.2L107.1 906.3L109.3 915.6L114.2 923.7L121.4 930.0L130.5 934.0L141.0 935.3L152.3 933.8L163.8 929.3L174.9 921.9L184.8 911.8L193.2 899.1L199.4 884.5L203.2 868.3L204.2 851.1L202.3 833.6L197.5 816.3L190.0 799.9L179.9 785.0L167.7 772.1L153.9 761.6L138.9 753.8L123.4 748.8L108.1 746.8L93.5 747.7L80.3 751.1L68.9 756.9L59.9 764.4L53.5 773.3L50.1 782.9L49.6 792.6L52.0 801.7L57.2 809.7L64.8 815.9L74.5 820.0L85.7 821.6L97.8 820.3L110.3 816.1L122.4 808.9L133.6 799.0L143.4 786.5L151.1 771.9L156.4 755.6L159.0 738.2L158.8 720.3L155.6 702.6L149.7 685.6L141.1 670.0L130.4 656.2L117.8 644.8L104.1 636.0L89.6 630.1L75.2 627.1L61.4 627.0L48.8 629.6L38.0 634.5L29.4 641.5L23.4 649.8L20.2 659.0L20.0 668.5L22.8 677.6L28.4 685.6L36.5 692.1L46.8 696.5L58.7 698.5L71.6 697.7L85.1 693.9L98.4 687.3L110.9 677.8L122.0 665.7L131.3 651.4L138.2 635.3L142.5 618.0L144.0 600.0L142.5 582.0L138.2 564.7L131.3 548.6L122.0 534.3L110.9 522.2L98.4 512.7L85.1 506.1L71.6 502.3L58.7 501.5L46.8 503.5L36.5 507.9L28.4 514.4L22.8 522.4L20.0 531.5L20.2 541.0L23.4 550.2L29.4 558.5L38.0 565.5L48.8 570.4L61.4 573.0L75.2 572.9L89.6 569.9L104.1 564.0L117.8 555.2L130.4 543.8L141.1 530.0L149.7 514.4L155.6 497.4L158.8 479.7L159.0 461.8L156.4 444.4L151.1 428.1L143.4 413.5L133.6 401.0L122.4 391.1L110.3 383.9L97.8 379.7L85.7 378.4L74.5 380.0L64.8 384.1L57.2 390.3L52.0 398.3L49.6 407.4L50.1 417.1L53.5 426.7L59.9 435.6L68.9 443.1L80.3 448.9L93.5 452.3L108.1 453.2L123.4 451.2L138.9 446.2L153.9 438.4L167.7 427.9L179.9 415.0L190.0 400.1L197.5 383.7L202.3 366.4L204.2 348.9L203.2 331.7L199.4 315.5L193.2 300.9L184.8 288.2L174.9 278.1L163.8 270.7L152.3 266.2L141.0 264.7L130.5 266.0L121.4 270.0L114.2 276.3L109.3 284.4L107.1 293.7L107.9 303.8L111.6 314.0L118.2 323.5L127.5 332.0L139.3 338.7L153.0 343.2L168.3 345.2L184.4 344.4L200.7 340.7L216.8 334.0L231.8 324.7L245.3 312.8L256.8 298.9L265.8 283.4L272.1 266.9L275.5 250.0L276.0 233.2L273.7 217.4L268.8 202.9L261.8 190.4L252.9 180.3L242.9 172.8L232.3 168.3L221.7 166.8L211.8 168.1L203.1 172.2L196.2 178.6L191.5 187.0L189.5 196.8L190.3 207.4L194.1 218.3L200.8 228.8L210.3 238.2L222.3 246.1L236.4 251.8L252.1 255.2L268.8 255.7L285.9 253.4L302.8 248.2L318.8 240.2L333.4 229.6L346.1 216.9L356.4 202.5L364.1 186.9L368.9 170.8L370.7 154.8L369.7 139.4L366.1 125.4L360.2 113.2L352.3 103.2L343.2 96.0L333.3 91.6L323.3 90.2L313.8 91.7L305.4 96.0L298.6 102.7L294.0 111.5L292.0 121.9L292.7 133.3L296.4 145.0L303.1 156.5L312.5 167.0L324.5 176.2L338.7 183.4L354.6 188.2L371.7 190.3L389.3 189.5L406.8 185.8L423.6 179.3L439.2 170.3L452.8 158.9L464.2 145.7L473.0 131.3L479.0 116.1L482.0 100.9L482.1 86.3L479.5 72.8L474.5 61.1L467.5 51.5L459.1 44.6L449.7 40.5L440.1 39.3L430.8 41.1L422.5 45.7L415.8 52.9L411.0 62.2L408.8 73.2L409.2 85.4L412.6 98.0L418.9 110.6L428.1 122.4L439.9 132.9L454.0 141.6L469.9 147.9L487.0 151.7L504.9 152.6L522.8 150.6L540.1 145.7L556.3 138.2L570.7 128.3L582.9 116.5L592.6 103.3L599.5 89.3L603.4 75.0L604.4 61.2L602.6 48.4L598.4 37.3L592.1 28.2L584.1 21.6L575.1 17.8L565.7 17.0L556.5 19.2L548.1 24.2L541.0 31.8L536.0 41.7L533.2 53.4L533.2 66.4L536.0 80.0L541.8 93.7L550.4 106.7L561.7 118.6L575.4 128.8L591.0 136.7L608.0 142.1L625.8 144.7L643.9 144.4L661.4 141.3L677.9 135.4L692.9 127.0L705.7 116.7L716.0 104.8L723.5 91.9L728.1 78.7L729.8 65.8L728.6 53.7L724.9 43.2L719.0 34.6L711.3 28.5L702.4 25.1L693.0 24.6L683.6 27.1L674.9 32.5L667.4 40.6L661.7 51.0L658.3 63.4L657.5 77.1L659.6 91.7L664.5 106.4L672.4 120.7L683.0 134.0L696.0 145.6L711.0 155.1L727.6 162.2L745.1 166.4L762.9 167.8L780.5 166.3L797.1 162.0L812.2 155.3L825.3 146.3L836.0 135.8L843.9 124.1L849.0 111.9L851.1 99.9L850.3 88.6L846.9 78.6L841.1 70.6L833.5 64.8L824.6 61.8L814.9 61.6L805.2 64.4L795.9 70.1L787.8 78.6L781.3 89.5L777.0 102.4L775.2 116.9L776.2 132.3L780.1 148.0L787.0 163.5L796.6 177.9L808.7 190.9L822.9 201.9L838.7 210.5L855.6 216.4L873.0 219.4L890.3 219.5L906.7 216.8L921.8 211.5L934.9 204.0L945.7 194.7L953.9 184.1L959.1 172.9L961.4 161.7L960.8 151.1L957.4 141.7L951.7 134.1L943.9 128.6L934.8 125.8L924.7 125.9L914.3 128.9L904.4 134.8L895.4 143.5L887.9 154.8L882.5 168.2L879.5 183.2L879.3 199.3L882.0 215.9L887.5 232.3L895.9 247.9L906.8 262.1L920.0 274.4L934.9 284.5L951.0 291.8L967.7 296.3L984.4 297.9L1000.4 296.6L1015.2 292.7L1028.1 286.4L1038.9 278.3L1047.0 268.7L1052.2 258.4L1054.5 247.9L1053.8 237.9L1050.4 228.9L1044.4 221.6L1036.4 216.4L1026.8 213.7L1016.1 213.8L1005.1 216.8L994.2 222.8L984.2 231.7L975.6 243.1L968.9 256.7L964.6 272.1L962.9 288.7L964.1 305.9L968.3 323.1L975.2 339.6L984.8 354.9L996.7 368.4L1010.4 379.6L1025.5 388.2L1041.3 394.1L1057.2 396.9L1072.6 396.9L1086.9 394.2L1099.5 389.1L1110.0 381.9L1117.9 373.3L1122.9 363.7L1125.0 353.8L1124.2 344.1L1120.5 335.5L1114.2 328.3L1105.8 323.1L1095.6 320.3L1084.3 320.3L1072.3 323.2L1060.5 329.1L1049.3 337.8L1039.5 349.2L1031.4 362.9L1025.6 378.4L1022.4 395.3L1022.0 412.9L1024.5 430.6L1029.9 447.8L1038.0 463.9L1048.5 478.2L1060.9 490.5L1074.8 500.2L1089.5 507.1L1104.5 511.1L1119.2 512.2L1132.8 510.5L1144.9 506.2L1154.9 499.9L1162.4 491.9L1167.2 482.9L1169.0 473.3L1167.9 464.0L1163.9 455.4L1157.2 448.1L1148.2 442.8L1137.4 439.8L1125.3 439.4L1112.5 442.0L1099.6 447.4L1087.2 455.8L1076.0 466.9L1066.5 480.3L1059.1 495.8L1054.3 512.6L1052.2 530.4L1053.1 548.4L1056.8 566.0L1063.3 582.6L1072.2 597.7L1083.2 610.6L1095.8 621.2L1109.4 628.9L1123.4 633.8L1137.1 635.7L1150.0 634.8L1161.5 631.3L1171.0 625.6L1178.1 618.1L1182.5 609.4L1184.0 600.0Z" stroke-opacity="0.36"/><path d="M1183.4 627.2L1182.3 617.8L1178.3 608.8L1171.6 601.0L1162.3 594.9L1151.0 590.8L1138.2 589.3L1124.4 590.6L1110.2 594.8L1096.2 601.9L1083.2 611.9L1071.6 624.3L1062.0 638.9L1054.7 655.2L1050.2 672.6L1048.5 690.6L1049.7 708.4L1053.8 725.5L1060.4 741.2L1069.3 755.1L1080.0 766.7L1091.9 775.6L1104.6 781.7L1117.3 784.8L1129.4 785.1L1140.3 782.6L1149.5 777.6L1156.5 770.7L1161.0 762.3L1162.5 753.0L1161.2 743.4L1156.8 734.1L1149.6 725.8L1139.9 719.0L1128.1 714.2L1114.5 711.9L1099.8 712.3L1084.7 715.6L1069.6 721.8L1055.3 730.8L1042.3 742.5L1031.2 756.4L1022.4 772.1L1016.2 789.0L1012.8 806.6L1012.4 824.2L1014.8 841.2L1019.9 857.0L1027.3 871.0L1036.6 882.8L1047.4 892.1L1059.0 898.5L1070.7 901.9L1082.1 902.4L1092.4 900.1L1101.1 895.4L1107.6 888.5L1111.7 880.0L1113.0 870.4L1111.4 860.4L1106.8 850.6L1099.3 841.5L1089.2 833.9L1076.8 828.2L1062.7 824.8L1047.3 824.1L1031.3 826.3L1015.2 831.3L999.7 839.3L985.5 849.8L973.0 862.7L962.7 877.5L955.0 893.7L950.1 910.7L948.1 927.8L948.9 944.5L952.5 960.1L958.6 974.0L966.6 985.8L976.2 995.1L986.8 1001.6L997.7 1005.2L1008.4 1005.8L1018.1 1003.5L1026.4 998.7L1032.6 991.6L1036.5 982.8L1037.6 972.8L1035.8 962.3L1031.1 951.7L1023.4 941.8L1013.1 933.2L1000.4 926.3L985.8 921.7L969.9 919.7L953.2 920.5L936.3 924.2L919.8 930.8L904.5 940.1L890.8 951.8L879.2 965.5L870.1 980.7L863.8 996.8L860.4 1013.2L859.8 1029.3L862.1 1044.5L866.9 1058.1L873.8 1069.7L882.4 1078.9L892.1 1085.3L902.3 1088.7L912.3 1089.2L921.6 1086.8L929.6 1081.8L935.7 1074.4L939.5 1065.2L940.6 1054.6L938.9 1043.3L934.1 1031.9L926.5 1021.0L916.1 1011.2L903.3 1003.0L888.5 997.0L872.2 993.6L855.0 992.9L837.5 995.1L820.3 1000.2L804.1 1008.0L789.4 1018.3L776.7 1030.7L766.4 1044.8L758.9 1059.9L754.3 1075.4L752.5 1090.7L753.6 1105.3L757.3 1118.4L763.3 1129.6L771.0 1138.4L780.0 1144.6L789.6 1147.8L799.3 1148.1L808.4 1145.5L816.2 1140.1L822.3 1132.3L826.2 1122.5L827.5 1111.3L826.0 1099.1L821.5 1086.7L814.1 1074.7L803.9 1063.6L791.3 1054.1L776.5 1046.7L760.1 1041.6L742.7 1039.3L724.8 1039.8L707.1 1043.3L690.2 1049.6L674.8 1058.4L661.2 1069.4L650.0 1082.1L641.5 1096.0L635.8 1110.5L633.1 1125.0L633.3 1138.8L636.1 1151.3L641.3 1162.0L648.4 1170.4L656.9 1176.2L666.1 1179.1L675.6 1179.1L684.6 1176.1L692.5 1170.3L698.9 1162.0L703.1 1151.7L704.8 1139.7L703.7 1126.7L699.7 1113.3L692.8 1100.1L683.1 1087.7L670.7 1076.8L656.2 1067.8L640.0 1061.1L622.6 1057.1L604.6 1056.0L586.7 1057.7L569.5 1062.4L553.5 1069.6L539.4 1079.1L527.5 1090.4L518.3 1103.1L511.9 1116.5L508.4 1129.9L507.9 1142.9L510.1 1154.7L514.7 1164.9L521.3 1172.8L529.5 1178.2L538.6 1180.8L548.1 1180.4L557.2 1177.0L565.5 1170.8L572.2 1162.0L577.0 1151.1L579.3 1138.4L579.0 1124.6L575.7 1110.1L569.5 1095.8L560.5 1082.2L548.8 1069.8L534.8 1059.3L519.0 1051.0L502.0 1045.4L484.2 1042.5L466.3 1042.6L449.0 1045.5L432.8 1051.1L418.3 1059.1L406.1 1069.1L396.4 1080.4L389.4 1092.7L385.5 1105.2L384.5 1117.3L386.2 1128.4L390.5 1138.0L396.9 1145.4L405.0 1150.4L414.2 1152.7L423.9 1151.9L433.4 1148.3L442.2 1141.7L449.6 1132.5L455.1 1121.0L458.3 1107.7L458.9 1093.0L456.6 1077.7L451.3 1062.3L443.3 1047.5L432.5 1033.8L419.3 1021.8L404.3 1012.0L387.8 1004.7L370.4 1000.2L352.9 998.7L335.7 1000.0L319.6 1004.0L305.1 1010.5L292.7 1019.1L282.7 1029.3L275.6 1040.4L271.3 1051.9L270.1 1063.3L271.6 1073.7L275.8 1082.7L282.2 1089.8L290.4 1094.5L299.9 1096.4L309.9 1095.5L320.0 1091.5L329.5 1084.7L337.8 1075.2L344.3 1063.2L348.5 1049.4L350.3 1034.1L349.2 1018.0L345.1 1001.6L338.2 985.7L328.6 970.8L316.5 957.5L302.4 946.3L286.7 937.6L270.1 931.6L253.1 928.5L236.4 928.3L220.6 930.9L206.3 936.0L193.9 943.3L184.0 952.3L176.8 962.4L172.5 973.1L171.2 983.7L172.8 993.6L177.0 1002.2L183.6 1008.9L192.1 1013.4L202.0 1015.2L212.6 1014.1L223.4 1010.1L233.8 1003.1L243.1 993.4L250.7 981.3L256.3 967.1L259.3 951.3L259.6 934.6L257.0 917.5L251.4 900.7L243.1 884.8L232.3 870.3L219.4 857.9L204.8 847.8L189.1 840.5L172.9 836.0L156.9 834.4L141.6 835.7L127.6 839.6L115.6 845.8L105.8 853.7L98.8 863.0L94.6 873.0L93.4 883.0L95.2 892.5L99.6 900.8L106.5 907.4L115.5 911.8L125.9 913.6L137.3 912.6L149.0 908.7L160.3 901.8L170.8 892.1L179.7 879.9L186.6 865.5L191.2 849.5L193.0 832.4L191.9 814.8L187.9 797.3L181.1 780.6L171.8 765.3L160.2 751.8L146.8 740.7L132.2 732.2L117.0 726.5L101.8 723.8L87.2 724.0L73.8 726.8L62.2 732.0L52.8 739.1L46.1 747.7L42.1 757.1L41.2 766.7L43.2 776.0L48.0 784.2L55.4 790.8L64.8 795.3L75.9 797.4L88.1 796.7L100.7 793.0L113.2 786.5L124.9 777.0L135.2 765.0L143.6 750.8L149.7 734.8L153.1 717.5L153.7 699.6L151.4 681.8L146.2 664.5L138.4 648.5L128.3 634.3L116.3 622.3L102.9 612.9L88.8 606.3L74.5 602.6L60.7 601.9L48.0 603.9L37.0 608.3L28.0 614.9L21.7 622.9L18.1 632.0L17.5 641.4L19.8 650.6L25.0 658.9L32.8 665.8L42.9 670.7L54.7 673.2L67.7 673.0L81.3 669.9L94.9 663.8L107.8 654.9L119.5 643.4L129.4 629.5L137.1 613.8L142.2 596.6L144.5 578.8L143.9 560.8L140.4 543.3L134.2 526.9L125.6 512.1L115.1 499.6L103.0 489.5L90.0 482.2L76.8 477.9L63.8 476.5L51.9 477.8L41.4 481.8L33.0 487.9L27.1 495.7L23.9 504.6L23.6 514.1L26.3 523.4L31.9 532.0L40.2 539.4L50.8 544.8L63.2 548.0L77.0 548.5L91.6 546.2L106.3 541.0L120.4 532.8L133.5 522.0L144.9 508.8L154.2 493.6L160.9 476.9L164.9 459.3L165.9 441.4L164.1 424.0L159.6 407.4L152.5 392.5L143.4 379.6L132.6 369.1L120.8 361.4L108.6 356.6L96.5 354.8L85.3 355.8L75.5 359.4L67.5 365.3L62.0 373.0L59.1 382.0L59.2 391.7L62.2 401.4L68.1 410.6L76.8 418.6L87.9 424.9L100.9 428.9L115.5 430.4L130.9 429.1L146.5 424.9L161.9 417.8L176.2 408.0L189.0 395.6L199.7 381.2L208.0 365.2L213.6 348.2L216.3 330.8L216.1 313.6L213.1 297.2L207.5 282.3L199.8 269.3L190.3 258.7L179.6 250.8L168.3 245.7L157.1 243.7L146.6 244.6L137.2 248.1L129.8 254.0L124.5 261.9L121.9 271.1L122.2 281.2L125.4 291.6L131.6 301.4L140.5 310.3L151.9 317.5L165.5 322.7L180.6 325.4L196.7 325.3L213.2 322.4L229.6 316.5L245.0 307.8L259.1 296.7L271.2 283.3L280.9 268.2L288.0 252.0L292.2 235.2L293.4 218.6L291.9 202.6L287.7 187.9L281.2 175.1L272.9 164.6L263.2 156.7L252.8 151.7L242.3 149.6L232.3 150.5L223.4 154.1L216.2 160.3L211.2 168.4L208.7 178.1L209.0 188.8L212.3 199.8L218.5 210.6L227.6 220.5L239.2 228.9L253.0 235.3L268.5 239.4L285.2 240.7L302.4 239.2L319.5 234.8L335.9 227.5L351.0 217.6L364.2 205.5L375.2 191.6L383.6 176.4L389.1 160.5L391.7 144.6L391.4 129.2L388.4 115.0L383.1 102.5L375.7 92.3L366.9 84.6L357.3 79.7L347.3 77.8L337.7 78.9L329.1 82.8L322.1 89.2L317.1 97.8L314.6 108.1L314.8 119.5L317.9 131.4L324.0 143.1L333.0 154.1L344.5 163.8L358.4 171.7L374.1 177.2L391.0 180.1L408.6 180.1L426.3 177.3L443.4 171.6L459.3 163.2L473.5 152.5L485.5 139.9L495.0 125.9L501.6 111.0L505.3 96.0L506.1 81.4L504.1 67.8L499.7 55.8L493.2 46.0L485.1 38.6L475.9 34.1L466.4 32.5L457.0 33.8L448.5 38.0L441.4 44.9L436.3 54.0L433.5 64.9L433.4 77.1L436.2 89.9L441.9 102.7L450.5 114.9L461.8 126.0L475.5 135.3L491.0 142.4L508.0 146.9L525.8 148.6L543.8 147.5L561.3 143.4L577.8 136.6L592.7 127.5L605.4 116.2L615.7 103.5L623.2 89.8L627.8 75.8L629.5 62.0L628.3 49.2L624.6 37.8L618.7 28.4L611.0 21.5L602.2 17.3L592.9 16.0L583.5 17.8L574.9 22.4L567.5 29.7L562.0 39.3L558.7 50.9L558.1 63.8L560.3 77.6L565.4 91.5L573.4 105.0L584.2 117.4L597.4 128.1L612.6 136.8L629.3 143.0L647.0 146.4L665.0 147.0L682.7 144.6L699.5 139.5L714.8 131.9L728.0 122.1L738.9 110.7L747.0 98.2L752.2 85.2L754.5 72.4L753.9 60.3L750.7 49.6L745.1 40.8L737.8 34.3L729.1 30.5L719.7 29.5L710.2 31.6L701.2 36.6L693.4 44.3L687.2 54.5L683.2 66.7L681.8 80.4L683.1 95.0L687.4 110.0L694.6 124.6L704.6 138.3L717.0 150.6L731.6 160.8L747.8 168.6L765.1 173.7L782.9 175.9L800.4 175.2L817.2 171.7L832.7 165.6L846.2 157.3L857.3 147.3L865.8 136.0L871.4 124.0L874.1 112.1L873.8 100.8L870.8 90.7L865.5 82.4L858.2 76.3L849.4 72.8L839.7 72.2L829.8 74.5L820.3 79.8L811.8 87.9L804.9 98.5L799.9 111.2L797.5 125.6L797.8 141.0L801.0 156.9L807.1 172.6L816.0 187.6L827.5 201.1L841.2 212.7L856.6 222.1L873.2 228.7L890.4 232.5L907.7 233.4L924.2 231.5L939.5 226.9L953.0 220.0L964.2 211.2L972.8 201.0L978.6 190.1L981.4 179.0L981.3 168.4L978.4 158.8L973.0 150.9L965.5 145.2L956.5 141.9L946.4 141.5L935.9 144.0L925.7 149.5L916.3 157.8L908.3 168.7L902.3 181.8L898.6 196.7L897.6 212.7L899.5 229.4L904.3 246.1L912.0 262.0L922.2 276.8L934.8 289.7L949.2 300.4L965.0 308.5L981.4 313.7L998.0 316.1L1014.1 315.6L1029.0 312.3L1042.3 306.7L1053.4 299.0L1061.9 289.9L1067.6 279.8L1070.4 269.4L1070.2 259.4L1067.2 250.3L1061.6 242.7L1053.8 237.1L1044.3 234.0L1033.7 233.6L1022.5 236.1L1011.3 241.6L1000.9 249.9L991.8 260.9L984.5 274.3L979.5 289.4L977.0 306.0L977.4 323.2L980.8 340.5L986.9 357.4L995.8 373.1L1007.1 387.1L1020.3 398.9L1034.9 408.3L1050.4 414.8L1066.2 418.4L1081.6 419.2L1096.0 417.1L1108.8 412.6L1119.6 405.9L1127.8 397.6L1133.4 388.3L1135.9 378.5L1135.5 368.8L1132.3 360.0L1126.3 352.5L1118.1 346.9L1108.1 343.7L1096.7 343.2L1084.7 345.5L1072.6 350.8L1061.0 359.0L1050.6 369.9L1042.0 383.2L1035.4 398.4L1031.5 415.1L1030.3 432.7L1032.0 450.5L1036.6 468.0L1043.9 484.4L1053.7 499.2L1065.5 512.0L1078.9 522.4L1093.3 530.0L1108.1 534.7L1122.7 536.4L1136.4 535.3L1148.7 531.7L1159.0 525.8L1166.9 518.2L1172.1 509.4L1174.3 500.0L1173.6 490.5L1170.0 481.8L1163.7 474.2L1155.0 468.5L1144.3 464.9L1132.2 464.0L1119.3 466.0L1106.1 470.8L1093.4 478.6L1081.7 489.2L1071.5 502.2L1063.4 517.2L1057.8 533.9L1055.0 551.5L1055.0 569.5L1057.9 587.3L1063.6 604.2L1071.8 619.6L1082.2 633.1L1094.3 644.2L1107.5 652.6L1121.2 658.1L1134.9 660.7L1147.8 660.3L1159.4 657.4L1169.2 652.1L1176.6 645.0L1181.4 636.4L1183.4 627.2Z" stroke-opacity="0.36"/><path d="M1181.5 654.3L1180.9 644.8L1177.3 635.7L1170.9 627.6L1162.0 621.0L1150.9 616.5L1138.1 614.4L1124.2 615.0L1109.9 618.5L1095.6 625.0L1082.1 634.3L1070.0 646.2L1059.7 660.4L1051.7 676.3L1046.3 693.5L1043.8 711.3L1044.2 729.2L1047.4 746.5L1053.3 762.5L1061.5 776.8L1071.7 788.9L1083.2 798.3L1095.6 805.0L1108.1 808.7L1120.2 809.5L1131.3 807.5L1140.7 803.0L1148.0 796.4L1152.8 788.2L1154.8 779.0L1153.9 769.3L1150.0 759.9L1143.2 751.2L1133.8 744.0L1122.2 738.7L1108.8 735.7L1094.1 735.4L1078.8 738.0L1063.4 743.5L1048.7 751.9L1035.2 762.9L1023.5 776.3L1013.9 791.5L1007.0 808.1L1002.8 825.5L1001.5 843.1L1003.1 860.2L1007.5 876.2L1014.2 890.6L1023.0 902.8L1033.3 912.6L1044.6 919.5L1056.2 923.5L1067.5 924.5L1077.9 922.7L1086.8 918.4L1093.7 911.8L1098.1 903.5L1099.9 894.0L1098.7 883.9L1094.5 873.9L1087.5 864.5L1077.8 856.4L1065.7 850.1L1051.7 846.1L1036.4 844.7L1020.3 846.1L1004.0 850.4L988.2 857.6L973.5 867.5L960.4 879.8L949.4 894.1L940.9 909.9L935.2 926.6L932.4 943.7L932.5 960.3L935.4 976.1L940.8 990.3L948.3 1002.5L957.4 1012.2L967.7 1019.2L978.4 1023.2L989.0 1024.3L998.9 1022.5L1007.4 1018.1L1013.9 1011.3L1018.2 1002.7L1019.8 992.8L1018.5 982.1L1014.2 971.4L1007.1 961.1L997.1 952.0L984.8 944.6L970.5 939.3L954.6 936.5L937.9 936.6L920.8 939.5L904.1 945.3L888.3 953.9L874.1 964.9L861.9 978.1L852.1 992.9L845.0 1008.7L840.8 1024.9L839.6 1041.0L841.1 1056.2L845.3 1070.0L851.6 1081.9L859.8 1091.5L869.2 1098.3L879.2 1102.3L889.2 1103.2L898.6 1101.3L906.8 1096.6L913.3 1089.5L917.5 1080.5L919.1 1070.0L917.9 1058.6L913.7 1047.0L906.6 1035.7L896.7 1025.4L884.3 1016.7L869.8 1010.0L853.6 1005.8L836.5 1004.3L818.9 1005.7L801.5 1010.0L784.9 1017.0L769.7 1026.7L756.5 1038.5L745.6 1052.0L737.3 1066.8L732.0 1082.0L729.5 1097.3L730.0 1111.9L733.1 1125.2L738.5 1136.6L745.8 1145.8L754.5 1152.4L764.0 1156.1L773.6 1156.8L782.8 1154.6L790.9 1149.6L797.3 1142.1L801.7 1132.5L803.5 1121.3L802.5 1109.1L798.6 1096.5L791.8 1084.2L782.2 1072.6L769.9 1062.5L755.5 1054.4L739.4 1048.6L722.1 1045.4L704.2 1045.2L686.3 1047.8L669.2 1053.3L653.3 1061.4L639.3 1071.7L627.5 1083.9L618.4 1097.4L612.1 1111.6L608.7 1125.9L608.2 1139.7L610.4 1152.4L615.1 1163.3L621.8 1172.0L630.0 1178.2L639.1 1181.6L648.6 1182.0L657.7 1179.4L665.9 1174.0L672.6 1166.0L677.3 1155.8L679.6 1144.0L679.1 1130.9L675.7 1117.4L669.4 1103.9L660.3 1091.1L648.5 1079.6L634.4 1069.9L618.5 1062.5L601.3 1057.7L583.4 1055.7L565.4 1056.6L548.0 1060.4L531.7 1066.9L517.2 1075.7L504.8 1086.5L495.0 1098.7L487.9 1111.8L483.9 1125.1L482.7 1138.0L484.3 1149.9L488.5 1160.3L494.8 1168.5L502.7 1174.3L511.7 1177.3L521.1 1177.3L530.4 1174.4L538.9 1168.6L546.1 1160.1L551.4 1149.4L554.3 1136.9L554.6 1123.0L552.0 1108.5L546.5 1093.9L538.1 1079.8L527.0 1066.9L513.5 1055.8L498.2 1046.8L481.3 1040.3L463.7 1036.7L445.9 1035.9L428.4 1038.0L412.0 1042.9L397.2 1050.2L384.5 1059.5L374.2 1070.4L366.8 1082.4L362.2 1094.7L360.6 1106.7L361.9 1117.9L365.7 1127.6L371.8 1135.4L379.6 1140.8L388.7 1143.4L398.4 1143.2L408.1 1139.9L417.1 1133.8L425.0 1124.9L431.0 1113.7L434.8 1100.5L436.1 1085.9L434.5 1070.5L430.0 1054.9L422.6 1039.7L412.5 1025.5L399.9 1012.9L385.3 1002.4L369.2 994.4L352.1 989.1L334.6 986.7L317.4 987.3L301.1 990.6L286.3 996.4L273.5 1004.4L263.1 1014.0L255.4 1024.8L250.7 1036.2L248.9 1047.4L249.9 1057.9L253.7 1067.1L259.8 1074.5L267.8 1079.5L277.1 1081.9L287.2 1081.4L297.5 1078.0L307.2 1071.6L315.9 1062.4L323.0 1050.8L327.9 1037.2L330.3 1022.0L330.0 1005.9L326.7 989.4L320.6 973.1L311.6 957.8L300.2 944.0L286.6 932.1L271.4 922.6L255.0 915.9L238.2 912.0L221.5 911.0L205.6 912.9L191.1 917.3L178.4 924.0L168.1 932.5L160.4 942.3L155.6 952.8L153.8 963.3L154.9 973.3L158.7 982.1L165.0 989.1L173.3 993.9L183.1 996.2L193.8 995.6L204.8 992.1L215.4 985.7L225.2 976.4L233.4 964.6L239.6 950.7L243.3 935.1L244.4 918.4L242.6 901.2L237.8 884.1L230.3 867.9L220.2 852.9L207.8 839.9L193.7 829.2L178.4 821.1L162.4 815.9L146.4 813.6L131.1 814.1L117.0 817.4L104.7 823.0L94.6 830.5L87.1 839.4L82.5 849.2L80.8 859.1L82.1 868.7L86.2 877.2L92.8 884.1L101.5 888.9L111.8 891.2L123.2 890.7L135.1 887.3L146.8 881.0L157.7 871.8L167.1 860.0L174.7 846.0L180.0 830.2L182.6 813.2L182.3 795.6L179.2 778.0L173.2 761.0L164.5 745.2L153.6 731.2L140.8 719.4L126.6 710.3L111.7 703.9L96.6 700.5L82.0 700.0L68.5 702.2L56.6 706.8L46.9 713.5L39.8 721.8L35.4 731.0L34.1 740.6L35.6 749.9L40.1 758.3L47.1 765.3L56.3 770.2L67.3 772.8L79.5 772.6L92.3 769.6L105.0 763.6L117.1 754.7L128.0 743.2L137.1 729.4L143.9 713.7L148.1 696.6L149.5 678.8L148.0 660.8L143.7 643.4L136.6 627.0L127.2 612.3L115.8 599.8L102.9 589.7L89.1 582.5L75.0 578.2L61.2 576.8L48.4 578.2L37.2 582.1L28.0 588.2L21.2 596.0L17.2 604.9L16.2 614.3L18.1 623.6L22.9 632.1L30.4 639.3L40.2 644.7L51.9 647.7L64.9 648.1L78.6 645.7L92.5 640.3L105.8 632.0L118.0 621.0L128.6 607.6L137.0 592.2L142.9 575.4L146.0 557.6L146.2 539.6L143.5 522.0L138.1 505.3L130.2 490.2L120.3 477.1L108.7 466.5L96.1 458.6L83.0 453.7L70.2 451.6L58.1 452.5L47.5 455.9L38.8 461.6L32.5 469.1L28.9 477.9L28.2 487.3L30.5 496.8L35.7 505.7L43.6 513.4L53.9 519.3L66.2 523.1L80.0 524.3L94.6 522.6L109.5 518.1L124.1 510.6L137.6 500.4L149.6 487.7L159.6 472.9L167.1 456.6L171.9 439.2L173.8 421.4L172.8 403.9L169.0 387.2L162.7 371.9L154.1 358.6L143.9 347.6L132.5 339.4L120.4 334.0L108.5 331.6L97.2 332.1L87.2 335.3L79.0 340.8L73.1 348.2L69.9 357.1L69.4 366.8L72.0 376.6L77.5 386.1L85.8 394.4L96.6 401.2L109.4 405.9L123.9 408.1L139.3 407.5L155.2 404.0L170.8 397.6L185.6 388.4L198.9 376.7L210.3 362.8L219.4 347.2L225.8 330.5L229.3 313.2L229.9 296.0L227.6 279.5L222.8 264.3L215.6 251.0L206.6 240.0L196.3 231.6L185.3 226.0L174.2 223.5L163.6 223.8L154.1 227.0L146.4 232.5L140.8 240.1L137.7 249.3L137.5 259.4L140.3 269.8L146.0 280.0L154.5 289.2L165.6 297.0L178.8 302.8L193.8 306.2L209.9 306.9L226.6 304.7L243.1 299.6L259.0 291.6L273.5 281.1L286.2 268.3L296.7 253.7L304.5 237.9L309.5 221.3L311.5 204.7L310.7 188.7L307.2 173.8L301.3 160.7L293.5 149.8L284.2 141.5L274.0 136.0L263.6 133.5L253.6 133.9L244.6 137.1L237.1 142.9L231.7 150.8L228.8 160.4L228.6 171.0L231.4 182.2L237.1 193.3L245.7 203.5L256.9 212.5L270.4 219.6L285.6 224.3L302.2 226.4L319.5 225.7L336.8 222.1L353.5 215.6L369.0 206.5L382.8 195.0L394.5 181.6L403.5 166.8L409.8 151.2L413.1 135.4L413.5 120.0L411.2 105.7L406.4 93.0L399.6 82.4L391.2 74.3L381.7 69.0L371.9 66.7L362.3 67.3L353.5 70.8L346.1 76.8L340.8 85.2L337.7 95.3L337.4 106.7L340.0 118.7L345.6 130.8L354.0 142.2L365.1 152.4L378.6 160.9L394.0 167.1L410.8 170.8L428.4 171.7L446.2 169.7L463.5 164.8L479.8 157.2L494.5 147.1L507.1 135.1L517.1 121.5L524.5 107.0L528.9 92.1L530.3 77.6L529.0 63.9L525.1 51.8L519.1 41.6L511.3 33.9L502.4 28.9L492.9 26.9L483.5 27.8L474.8 31.6L467.4 38.1L461.8 47.0L458.5 57.7L457.9 69.9L460.1 82.8L465.2 95.9L473.2 108.5L484.0 120.1L497.2 130.0L512.5 137.8L529.2 143.1L546.9 145.7L564.9 145.3L582.6 142.1L599.4 136.1L614.7 127.6L627.9 117.0L638.8 104.8L646.9 91.4L652.2 77.6L654.5 64.0L653.9 51.1L650.7 39.6L645.2 29.9L637.9 22.7L629.3 18.1L620.0 16.3L610.6 17.6L601.8 21.8L594.1 28.8L588.1 38.2L584.3 49.6L583.1 62.5L584.6 76.3L589.1 90.4L596.5 104.3L606.7 117.2L619.3 128.5L634.1 137.9L650.6 144.9L668.1 149.1L686.0 150.5L703.8 148.9L720.8 144.6L736.4 137.7L750.1 128.6L761.5 117.7L770.2 105.6L776.0 92.9L778.9 80.1L778.8 68.1L776.1 57.2L771.0 48.1L763.9 41.3L755.4 37.1L746.1 35.7L736.5 37.3L727.3 41.9L719.1 49.2L712.5 59.1L708.0 71.1L705.9 84.7L706.5 99.4L710.1 114.6L716.6 129.5L725.9 143.7L737.8 156.5L751.9 167.4L767.7 175.9L784.8 181.8L802.4 184.8L820.0 185.0L836.9 182.3L852.6 176.9L866.5 169.2L878.1 159.7L887.1 148.8L893.3 137.2L896.5 125.4L896.7 114.0L894.2 103.8L889.3 95.3L882.3 88.8L873.7 85.0L864.0 83.9L854.0 85.8L844.3 90.6L835.4 98.3L828.0 108.6L822.5 121.0L819.4 135.3L818.9 150.7L821.4 166.7L826.7 182.7L834.9 198.0L845.8 212.1L858.9 224.4L873.9 234.4L890.2 241.8L907.2 246.5L924.4 248.2L941.0 247.0L956.5 243.1L970.3 236.8L981.9 228.6L991.0 218.8L997.3 208.1L1000.6 197.2L1000.9 186.6L998.5 176.9L993.5 168.8L986.3 162.7L977.4 159.0L967.3 158.1L956.8 160.1L946.3 165.1L936.5 173.0L928.0 183.5L921.4 196.3L917.1 211.0L915.3 227.0L916.4 243.8L920.5 260.6L927.3 276.9L936.9 292.1L948.9 305.6L962.8 316.9L978.1 325.8L994.3 331.8L1010.8 334.9L1026.9 335.1L1041.9 332.6L1055.4 327.6L1066.9 320.5L1075.8 311.7L1082.0 301.9L1085.2 291.7L1085.5 281.6L1082.9 272.4L1077.7 264.5L1070.2 258.6L1060.9 255.0L1050.2 254.1L1038.9 256.1L1027.6 261.1L1016.8 269.0L1007.1 279.5L999.2 292.5L993.5 307.4L990.3 323.8L989.9 341.1L992.4 358.5L997.8 375.6L1005.9 391.7L1016.5 406.2L1029.2 418.7L1043.4 428.7L1058.6 436.0L1074.1 440.3L1089.5 441.8L1104.0 440.4L1117.0 436.4L1128.0 430.3L1136.7 422.4L1142.6 413.3L1145.7 403.6L1145.7 394.0L1142.8 385.0L1137.3 377.2L1129.3 371.3L1119.5 367.6L1108.2 366.6L1096.0 368.3L1083.7 373.1L1071.8 380.7L1060.9 391.1L1051.6 404.0L1044.3 418.9L1039.6 435.4L1037.6 452.9L1038.5 470.8L1042.2 488.4L1048.8 505.2L1057.9 520.5L1069.1 533.8L1082.0 544.7L1096.0 553.0L1110.6 558.4L1125.1 560.8L1138.8 560.4L1151.2 557.3L1161.8 551.9L1170.1 544.7L1175.6 536.1L1178.4 526.8L1178.1 517.3L1174.9 508.4L1168.9 500.6L1160.5 494.4L1150.0 490.4L1138.0 488.9L1125.0 490.3L1111.6 494.5L1098.5 501.7L1086.3 511.7L1075.6 524.2L1066.8 538.9L1060.4 555.3L1056.7 572.7L1055.9 590.7L1058.0 608.6L1062.9 625.7L1070.4 641.6L1080.1 655.5L1091.7 667.1L1104.5 676.1L1118.0 682.3L1131.5 685.5L1144.4 685.8L1156.1 683.4L1166.1 678.5L1173.9 671.7L1179.1 663.5L1181.5 654.3Z" stroke-opacity="0.36"/><path d="M1178.3 681.3L1178.1 671.8L1175.0 662.6L1169.0 654.1L1160.4 647.1L1149.5 642.1L1136.9 639.4L1123.0 639.4L1108.4 642.2L1093.9 648.0L1080.0 656.7L1067.3 668.0L1056.4 681.7L1047.6 697.2L1041.5 714.2L1038.1 731.9L1037.7 749.7L1040.1 767.1L1045.3 783.4L1052.8 798.1L1062.4 810.6L1073.5 820.6L1085.5 827.8L1097.9 832.1L1109.9 833.5L1121.0 832.0L1130.7 827.9L1138.3 821.7L1143.4 813.7L1145.9 804.6L1145.4 794.9L1141.9 785.3L1135.6 776.3L1126.5 768.7L1115.2 762.8L1101.9 759.2L1087.2 758.3L1071.8 760.1L1056.3 764.9L1041.2 772.6L1027.2 783.0L1014.8 795.8L1004.6 810.6L996.8 826.8L991.9 844.0L989.8 861.5L990.6 878.7L994.2 894.9L1000.3 909.5L1008.5 922.2L1018.3 932.4L1029.2 939.8L1040.6 944.3L1051.9 945.9L1062.3 944.6L1071.4 940.7L1078.6 934.4L1083.5 926.3L1085.7 916.9L1085.0 906.8L1081.3 896.6L1074.7 886.9L1065.3 878.4L1053.6 871.5L1039.8 866.9L1024.5 864.7L1008.4 865.4L991.9 868.9L975.8 875.4L960.6 884.6L947.0 896.3L935.3 910.1L926.2 925.4L919.7 941.9L916.1 958.7L915.4 975.4L917.5 991.3L922.3 1005.7L929.2 1018.2L937.9 1028.4L947.8 1035.8L958.3 1040.4L968.9 1042.0L978.8 1040.6L987.5 1036.6L994.4 1030.2L999.0 1021.8L1001.1 1011.9L1000.3 1001.2L996.5 990.2L989.8 979.7L980.3 970.1L968.4 962.1L954.3 956.2L938.6 952.7L921.9 951.9L904.7 954.0L887.7 959.1L871.6 966.9L856.8 977.3L844.0 989.9L833.5 1004.2L825.7 1019.6L820.8 1035.7L818.8 1051.6L819.7 1066.9L823.1 1080.9L829.0 1093.1L836.6 1103.0L845.7 1110.3L855.5 1114.7L865.5 1116.1L875.0 1114.6L883.4 1110.4L890.2 1103.6L894.8 1094.8L896.9 1084.3L896.2 1072.9L892.5 1061.1L886.0 1049.5L876.5 1038.8L864.6 1029.5L850.4 1022.1L834.5 1017.2L817.4 1014.9L799.8 1015.4L782.2 1018.9L765.3 1025.2L749.7 1034.1L735.9 1045.3L724.4 1058.3L715.5 1072.6L709.4 1087.7L706.3 1102.8L706.0 1117.4L708.5 1130.8L713.4 1142.5L720.2 1152.0L728.6 1159.0L737.9 1163.1L747.5 1164.3L756.8 1162.5L765.1 1157.8L771.9 1150.7L776.7 1141.3L779.0 1130.2L778.6 1118.0L775.3 1105.2L769.1 1092.6L760.0 1080.6L748.2 1069.9L734.2 1061.1L718.4 1054.6L701.2 1050.6L683.3 1049.5L665.4 1051.3L648.0 1056.0L631.8 1063.3L617.3 1073.0L605.0 1084.7L595.2 1097.7L588.2 1111.6L584.2 1125.8L583.1 1139.5L584.7 1152.2L588.9 1163.4L595.2 1172.4L603.1 1179.0L612.0 1182.8L621.4 1183.6L630.7 1181.4L639.1 1176.4L646.2 1168.8L651.3 1158.8L654.2 1147.1L654.3 1134.0L651.6 1120.3L645.9 1106.5L637.4 1093.3L626.1 1081.3L612.5 1071.0L597.0 1062.8L580.0 1057.2L562.2 1054.4L544.2 1054.5L526.6 1057.5L510.1 1063.2L495.1 1071.4L482.3 1081.6L471.9 1093.3L464.3 1106.0L459.6 1119.1L457.8 1132.0L458.9 1144.0L462.5 1154.5L468.4 1163.0L476.0 1169.1L484.9 1172.5L494.3 1173.0L503.8 1170.5L512.6 1165.1L520.1 1157.0L525.9 1146.6L529.4 1134.1L530.3 1120.3L528.4 1105.7L523.5 1090.8L515.8 1076.4L505.3 1063.0L492.4 1051.2L477.5 1041.5L461.0 1034.3L443.5 1029.8L425.7 1028.2L408.2 1029.6L391.6 1033.6L376.5 1040.2L363.3 1049.0L352.6 1059.4L344.6 1071.0L339.5 1083.1L337.3 1095.0L338.0 1106.3L341.4 1116.2L347.1 1124.2L354.7 1129.9L363.6 1133.0L373.3 1133.2L383.2 1130.4L392.5 1124.7L400.7 1116.2L407.3 1105.3L411.7 1092.3L413.6 1077.8L412.8 1062.3L409.0 1046.5L402.3 1031.0L392.9 1016.3L380.9 1003.2L366.8 992.0L351.1 983.2L334.2 977.2L316.9 974.0L299.7 973.7L283.3 976.2L268.2 981.4L255.1 988.7L244.2 997.9L236.0 1008.3L230.8 1019.4L228.4 1030.6L229.0 1041.1L232.3 1050.5L238.1 1058.1L245.8 1063.5L255.0 1066.4L265.1 1066.3L275.6 1063.4L285.6 1057.5L294.7 1048.7L302.3 1037.5L307.9 1024.1L311.0 1009.0L311.4 992.9L308.9 976.2L303.5 959.7L295.3 944.0L284.5 929.6L271.5 917.2L256.7 907.0L240.7 899.5L224.1 894.8L207.5 893.1L191.5 894.2L176.8 897.9L163.8 904.0L153.1 912.1L144.9 921.5L139.7 931.7L137.4 942.2L138.0 952.2L141.4 961.1L147.4 968.4L155.4 973.7L165.1 976.4L175.8 976.3L187.0 973.3L197.9 967.4L208.1 958.6L216.8 947.1L223.6 933.5L228.1 918.1L230.0 901.5L228.9 884.2L225.0 867.0L218.2 850.4L208.8 835.0L197.1 821.4L183.5 810.0L168.5 801.2L152.8 795.3L137.0 792.2L121.6 792.1L107.4 794.7L94.8 799.7L84.4 806.7L76.5 815.3L71.4 824.8L69.3 834.7L70.2 844.3L73.8 853.0L80.1 860.2L88.6 865.4L98.8 868.2L110.2 868.2L122.2 865.4L134.2 859.6L145.5 850.9L155.5 839.6L163.7 826.0L169.7 810.4L173.1 793.6L173.7 775.9L171.4 758.2L166.2 740.9L158.3 724.8L148.0 710.3L135.7 697.9L122.0 688.1L107.3 681.1L92.4 676.9L77.9 675.7L64.3 677.3L52.3 681.4L42.3 687.7L34.7 695.6L30.0 704.6L28.1 714.1L29.3 723.5L33.3 732.1L40.0 739.3L49.0 744.7L59.8 747.8L72.0 748.2L84.9 745.8L98.0 740.4L110.5 732.1L121.8 721.1L131.5 707.7L139.1 692.3L144.1 675.5L146.3 657.7L145.7 639.7L142.2 622.1L135.9 605.4L127.1 590.3L116.3 577.2L103.9 566.6L90.4 558.7L76.5 553.8L62.9 551.8L50.0 552.6L38.6 556.0L29.1 561.6L22.0 569.1L17.6 577.8L16.2 587.1L17.6 596.5L22.1 605.2L29.2 612.8L38.7 618.6L50.2 622.2L63.2 623.2L77.0 621.4L91.1 616.6L104.8 608.9L117.6 598.5L128.7 585.6L137.8 570.7L144.5 554.1L148.4 536.5L149.5 518.6L147.7 500.8L143.0 483.9L135.8 468.4L126.5 454.9L115.4 443.8L103.2 435.3L90.4 429.8L77.6 427.2L65.6 427.4L54.8 430.4L45.9 435.7L39.2 442.9L35.2 451.5L34.1 460.8L35.9 470.4L40.7 479.5L48.2 487.6L58.3 494.0L70.4 498.3L84.1 500.1L98.8 499.2L113.9 495.3L128.8 488.6L142.8 479.0L155.3 466.9L166.0 452.6L174.2 436.6L179.8 419.5L182.6 401.8L182.4 384.2L179.4 367.3L173.7 351.8L165.9 338.1L156.1 326.7L145.1 317.9L133.3 312.0L121.5 309.0L110.2 309.0L100.1 311.7L91.7 316.8L85.4 324.0L81.7 332.7L80.9 342.3L83.0 352.3L88.0 362.0L95.9 370.7L106.4 378.0L119.0 383.3L133.3 386.1L148.8 386.3L164.8 383.5L180.7 377.9L195.9 369.4L209.8 358.3L221.8 345.0L231.6 329.8L238.7 313.4L243.0 296.3L244.4 279.1L242.9 262.5L238.8 247.2L232.3 233.5L223.8 222.1L213.9 213.2L203.1 207.2L192.2 204.1L181.6 204.0L172.0 206.6L164.0 211.8L158.0 219.1L154.6 228.1L153.9 238.2L156.1 248.8L161.4 259.2L169.4 268.8L180.1 277.1L193.1 283.5L207.9 287.6L224.0 289.0L240.7 287.6L257.5 283.3L273.7 276.1L288.7 266.3L302.0 254.1L313.1 240.0L321.6 224.5L327.4 208.2L330.2 191.7L330.1 175.7L327.3 160.7L322.1 147.3L314.7 136.0L305.9 127.3L296.0 121.3L285.7 118.3L275.6 118.3L266.5 121.1L258.7 126.5L253.0 134.1L249.6 143.6L249.0 154.2L251.2 165.5L256.4 176.8L264.5 187.5L275.3 196.9L288.4 204.6L303.5 210.1L319.9 213.0L337.2 213.1L354.6 210.3L371.6 204.6L387.6 196.2L401.9 185.3L414.1 172.5L423.9 158.1L430.9 142.8L434.9 127.2L436.1 111.8L434.4 97.4L430.2 84.5L423.9 73.6L415.9 65.1L406.7 59.4L396.9 56.6L387.3 56.8L378.4 59.9L370.8 65.6L365.0 73.7L361.5 83.7L360.7 95.0L362.7 107.2L367.7 119.4L375.6 131.2L386.2 142.0L399.3 151.0L414.3 158.0L430.9 162.5L448.5 164.2L466.3 163.0L483.9 158.9L500.5 152.1L515.7 142.7L528.8 131.3L539.5 118.2L547.5 104.0L552.6 89.4L554.7 74.9L554.0 61.2L550.7 48.9L545.2 38.4L537.8 30.4L529.1 25.0L519.7 22.5L510.3 23.0L501.4 26.4L493.7 32.6L487.7 41.1L483.9 51.7L482.7 63.8L484.3 76.9L488.8 90.2L496.2 103.2L506.5 115.2L519.2 125.7L534.0 134.2L550.5 140.3L568.1 143.7L586.1 144.2L603.9 141.8L621.0 136.6L636.6 128.8L650.4 118.8L661.8 107.1L670.5 94.2L676.4 80.6L679.3 67.1L679.4 54.2L676.7 42.5L671.7 32.7L664.8 25.0L656.4 20.0L647.2 17.9L637.7 18.7L628.7 22.5L620.7 29.1L614.3 38.2L609.9 49.4L608.1 62.3L609.0 76.2L612.8 90.5L619.6 104.6L629.1 118.0L641.2 129.9L655.6 140.0L671.7 147.7L689.0 152.8L706.8 155.0L724.7 154.3L741.9 150.7L757.8 144.6L771.9 136.1L783.8 125.7L793.0 114.1L799.4 101.6L802.9 89.0L803.4 77.0L801.2 66.0L796.5 56.7L789.8 49.5L781.5 44.9L772.2 43.1L762.5 44.3L753.1 48.4L744.6 55.4L737.5 64.9L732.4 76.7L729.7 90.2L729.7 104.9L732.6 120.2L738.4 135.5L747.0 150.1L758.3 163.4L771.9 174.9L787.3 184.2L804.0 190.8L821.5 194.7L839.1 195.7L856.1 193.7L872.0 189.1L886.2 182.1L898.3 173.1L907.8 162.7L914.5 151.3L918.2 139.7L919.0 128.4L917.0 118.1L912.5 109.3L905.7 102.5L897.3 98.3L887.8 96.7L877.7 98.1L867.7 102.5L858.5 109.8L850.6 119.7L844.5 131.9L840.7 146.0L839.6 161.4L841.3 177.5L845.9 193.7L853.4 209.4L863.6 224.0L876.1 236.8L890.6 247.5L906.5 255.7L923.3 261.1L940.4 263.6L957.0 263.2L972.7 260.1L986.8 254.4L998.8 246.7L1008.3 237.4L1015.1 227.1L1018.9 216.3L1019.7 205.7L1017.7 195.9L1013.1 187.5L1006.2 181.1L997.5 177.0L987.5 175.7L976.8 177.2L966.1 181.7L956.0 189.1L947.1 199.2L939.8 211.7L934.8 226.2L932.3 242.1L932.7 258.9L935.9 275.9L942.0 292.5L950.9 308.1L962.2 322.1L975.5 334.1L990.5 343.7L1006.4 350.4L1022.7 354.3L1038.7 355.3L1053.9 353.5L1067.6 349.1L1079.4 342.5L1088.7 334.2L1095.3 324.7L1099.1 314.6L1099.8 304.6L1097.6 295.2L1092.8 287.1L1085.6 280.9L1076.4 276.8L1065.8 275.5L1054.5 276.9L1042.9 281.4L1031.7 288.7L1021.6 298.8L1013.1 311.4L1006.7 326.1L1002.7 342.3L1001.5 359.5L1003.2 377.1L1007.8 394.4L1015.2 410.8L1025.1 425.8L1037.1 438.9L1050.8 449.5L1065.7 457.5L1081.1 462.6L1096.3 464.7L1110.8 464.0L1124.0 460.7L1135.4 455.0L1144.4 447.6L1150.7 438.8L1154.2 429.2L1154.7 419.6L1152.3 410.5L1147.1 402.5L1139.4 396.2L1129.7 392.0L1118.5 390.4L1106.3 391.7L1093.7 395.8L1081.4 402.9L1070.1 412.8L1060.2 425.2L1052.3 439.8L1046.8 456.0L1043.9 473.4L1044.0 491.3L1046.9 509.1L1052.7 526.1L1061.1 541.8L1071.7 555.7L1084.0 567.2L1097.7 576.1L1112.0 582.2L1126.3 585.3L1140.1 585.5L1152.6 583.0L1163.4 578.1L1172.0 571.3L1178.0 563.0L1181.1 553.8L1181.3 544.3L1178.5 535.2L1172.9 527.2L1164.8 520.6L1154.5 516.1L1142.5 514.1L1129.5 514.8L1115.9 518.4L1102.5 525.0L1089.9 534.4L1078.6 546.4L1069.1 560.7L1062.0 576.7L1057.5 594.0L1055.9 611.9L1057.1 629.9L1061.2 647.3L1068.0 663.4L1077.0 677.8L1088.0 690.0L1100.4 699.5L1113.6 706.3L1126.9 710.1L1139.8 711.0L1151.7 709.1L1161.9 704.8L1170.0 698.4L1175.5 690.3L1178.3 681.3Z" stroke-opacity="0.36"/><path d="M1173.9 708.1L1174.2 698.6L1171.5 689.2L1165.9 680.6L1157.6 673.2L1147.0 667.6L1134.4 664.3L1120.6 663.7L1105.9 665.9L1091.1 671.0L1076.8 679.0L1063.6 689.7L1052.1 702.8L1042.6 718.0L1035.7 734.6L1031.5 752.1L1030.3 769.9L1031.9 787.4L1036.2 803.9L1043.1 818.9L1052.1 831.9L1062.7 842.4L1074.4 850.2L1086.5 855.0L1098.5 856.9L1109.7 856.0L1119.5 852.4L1127.4 846.5L1132.9 838.8L1135.8 829.8L1135.7 820.1L1132.7 810.3L1126.8 801.1L1118.1 793.0L1107.0 786.6L1093.9 782.4L1079.4 780.8L1063.9 781.9L1048.1 786.0L1032.7 792.9L1018.2 802.7L1005.3 814.9L994.3 829.2L985.8 845.1L980.1 862.0L977.2 879.4L977.2 896.6L980.0 912.9L985.4 927.8L993.0 940.8L1002.4 951.5L1013.0 959.4L1024.1 964.5L1035.3 966.6L1045.8 965.7L1055.1 962.2L1062.5 956.3L1067.8 948.5L1070.4 939.2L1070.2 929.0L1066.9 918.6L1060.8 908.7L1051.9 899.7L1040.4 892.3L1026.9 887.0L1011.8 884.2L995.6 884.1L979.0 886.9L962.6 892.6L947.0 901.1L932.8 912.1L920.6 925.3L910.7 940.3L903.4 956.4L899.1 973.1L897.6 989.7L899.0 1005.6L903.0 1020.3L909.4 1033.1L917.6 1043.6L927.1 1051.5L937.5 1056.6L947.9 1058.6L957.9 1057.8L966.7 1054.1L973.9 1048.0L979.0 1039.9L981.5 1030.1L981.2 1019.4L977.9 1008.3L971.7 997.4L962.7 987.4L951.1 978.9L937.3 972.3L921.8 968.0L905.1 966.5L887.9 967.8L870.7 972.1L854.2 979.2L839.0 988.8L825.6 1000.8L814.5 1014.6L806.0 1029.7L800.3 1045.5L797.6 1061.3L797.7 1076.6L800.5 1090.8L805.8 1103.2L813.0 1113.5L821.7 1121.2L831.3 1126.0L841.2 1127.9L850.8 1126.9L859.4 1123.0L866.4 1116.5L871.4 1107.9L874.0 1097.6L873.9 1086.2L870.8 1074.2L864.7 1062.3L855.8 1051.2L844.3 1041.3L830.5 1033.3L814.8 1027.6L797.9 1024.5L780.2 1024.3L762.5 1026.9L745.3 1032.4L729.3 1040.6L715.0 1051.1L702.9 1063.6L693.4 1077.5L686.6 1092.2L682.8 1107.2L681.8 1121.7L683.7 1135.2L688.0 1147.2L694.4 1157.0L702.5 1164.3L711.6 1168.9L721.1 1170.5L730.4 1169.2L739.0 1164.9L746.1 1158.1L751.3 1148.9L754.2 1138.0L754.3 1125.7L751.6 1112.8L746.0 1099.9L737.4 1087.5L726.2 1076.3L712.6 1066.9L697.1 1059.6L680.1 1054.9L662.3 1052.9L644.3 1053.9L626.8 1057.7L610.2 1064.3L595.3 1073.3L582.4 1084.4L572.1 1097.0L564.4 1110.5L559.8 1124.5L558.0 1138.1L559.1 1150.9L562.7 1162.2L568.5 1171.6L576.1 1178.5L584.9 1182.7L594.3 1184.0L603.6 1182.2L612.3 1177.6L619.7 1170.3L625.3 1160.6L628.6 1149.0L629.4 1136.0L627.3 1122.2L622.3 1108.1L614.4 1094.5L603.7 1082.0L590.6 1071.0L575.5 1062.2L558.8 1055.8L541.1 1052.2L523.1 1051.4L505.4 1053.6L488.6 1058.5L473.3 1066.0L460.0 1075.6L449.1 1086.8L440.9 1099.2L435.6 1112.0L433.2 1124.8L433.7 1136.8L436.9 1147.5L442.4 1156.3L449.7 1162.8L458.4 1166.6L467.8 1167.5L477.3 1165.4L486.4 1160.5L494.3 1152.7L500.5 1142.5L504.6 1130.3L506.2 1116.5L504.9 1101.8L500.8 1086.7L493.7 1072.0L483.9 1058.1L471.5 1045.7L457.1 1035.4L440.9 1027.4L423.7 1022.1L406.0 1019.7L388.4 1020.2L371.6 1023.5L356.2 1029.4L342.7 1037.5L331.5 1047.4L322.9 1058.6L317.3 1070.4L314.6 1082.3L314.8 1093.5L317.7 1103.6L323.0 1111.9L330.3 1117.9L339.1 1121.4L348.8 1122.1L358.7 1119.7L368.3 1114.5L376.9 1106.4L384.0 1095.8L389.0 1083.0L391.6 1068.6L391.5 1053.1L388.5 1037.1L382.5 1021.3L373.7 1006.2L362.4 992.5L348.8 980.7L333.5 971.2L317.0 964.4L299.8 960.4L282.6 959.3L266.1 961.1L250.8 965.5L237.3 972.3L226.1 980.9L217.4 991.0L211.6 1001.8L208.8 1012.8L208.9 1023.4L211.8 1032.9L217.2 1040.8L224.6 1046.6L233.7 1049.8L243.8 1050.3L254.4 1047.8L264.7 1042.3L274.2 1034.0L282.3 1023.1L288.5 1010.0L292.3 995.1L293.4 979.0L291.7 962.3L287.1 945.5L279.6 929.5L269.5 914.6L257.1 901.5L242.8 890.7L227.2 882.4L210.8 877.0L194.3 874.5L178.3 874.8L163.4 877.9L150.1 883.4L139.0 890.9L130.5 900.0L124.7 910.0L122.0 920.3L122.1 930.3L125.1 939.4L130.7 947.0L138.5 952.6L148.1 955.7L158.8 956.2L170.0 953.7L181.3 948.3L191.8 939.9L201.1 928.9L208.5 915.6L213.7 900.5L216.3 883.9L216.1 866.7L213.0 849.2L207.0 832.3L198.3 816.5L187.2 802.4L174.2 790.4L159.6 780.9L144.2 774.3L128.6 770.5L113.2 769.6L98.9 771.5L86.1 775.9L75.3 782.5L67.1 790.7L61.6 800.0L59.0 809.7L59.4 819.4L62.6 828.2L68.6 835.7L76.8 841.3L86.9 844.6L98.3 845.2L110.4 842.9L122.6 837.7L134.3 829.5L144.9 818.7L153.7 805.4L160.4 790.2L164.6 773.5L166.0 755.9L164.5 738.1L160.1 720.6L152.9 704.1L143.3 689.1L131.7 676.2L118.4 665.8L104.1 658.1L89.4 653.3L74.9 651.4L61.3 652.3L49.1 655.9L38.8 661.6L30.9 669.2L25.7 677.9L23.4 687.4L24.1 696.8L27.8 705.6L34.1 713.1L42.8 718.9L53.6 722.5L65.7 723.5L78.7 721.7L92.0 716.9L104.9 709.2L116.7 698.7L127.0 685.8L135.3 670.8L141.1 654.2L144.2 636.6L144.3 618.5L141.6 600.8L136.1 583.8L128.1 568.3L117.9 554.8L106.0 543.6L92.9 535.1L79.3 529.5L65.7 526.8L52.8 527.0L41.3 529.9L31.5 535.1L24.1 542.2L19.3 550.7L17.4 560.0L18.4 569.4L22.4 578.3L29.2 586.2L38.5 592.5L49.8 596.6L62.7 598.2L76.6 597.0L90.9 592.9L105.0 585.9L118.2 576.1L129.9 563.7L139.7 549.2L147.1 533.0L151.9 515.6L153.8 497.7L152.8 479.9L148.9 462.8L142.5 447.0L133.8 433.0L123.2 421.4L111.4 412.4L98.9 406.2L86.2 403.0L74.2 402.7L63.3 405.2L54.1 410.1L47.1 416.9L42.7 425.3L41.2 434.7L42.5 444.3L46.9 453.6L54.1 462.0L63.8 468.9L75.7 473.8L89.3 476.2L104.0 476.0L119.3 472.8L134.5 466.8L148.9 457.8L162.0 446.3L173.3 432.5L182.3 417.0L188.7 400.1L192.2 382.6L192.9 365.0L190.7 348.0L185.8 332.2L178.5 318.2L169.3 306.3L158.7 297.0L147.3 290.6L135.6 287.1L124.3 286.5L114.0 288.7L105.4 293.5L98.8 300.4L94.7 308.9L93.4 318.5L95.1 328.5L99.7 338.4L107.1 347.5L117.2 355.3L129.6 361.1L143.8 364.6L159.2 365.5L175.3 363.5L191.5 358.6L207.0 350.8L221.4 340.4L234.1 327.6L244.5 312.9L252.4 296.9L257.5 280.0L259.7 262.9L259.0 246.3L255.6 230.7L249.7 216.8L241.8 205.0L232.3 195.6L221.9 189.1L211.0 185.5L200.4 184.9L190.7 187.1L182.5 191.9L176.2 199.0L172.3 207.8L171.2 217.8L173.0 228.5L177.7 239.1L185.3 249.2L195.6 257.9L208.3 264.9L222.9 269.7L238.9 271.9L255.6 271.2L272.6 267.7L289.1 261.3L304.6 252.2L318.4 240.6L330.2 227.0L339.4 212.0L345.9 195.9L349.5 179.6L350.2 163.6L348.1 148.5L343.4 134.9L336.6 123.3L328.2 114.1L318.6 107.7L308.4 104.2L298.4 103.7L289.1 106.1L281.1 111.1L275.0 118.5L271.2 127.8L270.1 138.4L271.8 149.8L276.5 161.3L284.0 172.3L294.4 182.3L307.1 190.6L321.9 196.7L338.2 200.4L355.5 201.3L373.0 199.3L390.3 194.4L406.6 186.7L421.4 176.6L434.2 164.3L444.6 150.4L452.3 135.4L457.1 120.0L459.0 104.7L458.0 90.3L454.4 77.2L448.6 66.0L440.9 57.2L432.0 51.0L422.4 47.8L412.8 47.5L403.7 50.1L395.9 55.5L389.7 63.3L385.8 73.1L384.4 84.4L385.9 96.7L390.3 109.2L397.6 121.3L407.7 132.5L420.4 142.2L435.1 149.9L451.5 155.1L468.9 157.6L486.8 157.2L504.6 154.0L521.5 147.9L537.0 139.3L550.7 128.5L562.0 115.9L570.6 102.1L576.4 87.7L579.2 73.3L579.1 59.6L576.4 47.2L571.3 36.5L564.3 28.1L555.9 22.3L546.7 19.4L537.2 19.4L528.2 22.4L520.2 28.2L513.8 36.5L509.6 46.9L507.8 59.0L508.7 72.0L512.6 85.5L519.5 98.9L529.1 111.4L541.4 122.5L555.8 131.7L572.0 138.5L589.3 142.7L607.3 144.0L625.2 142.5L642.5 138.1L658.5 131.0L672.7 121.7L684.7 110.5L694.0 98.0L700.5 84.7L704.0 71.3L704.7 58.5L702.6 46.7L698.0 36.6L691.4 28.7L683.3 23.3L674.2 20.7L664.7 21.1L655.5 24.5L647.2 30.7L640.4 39.5L635.6 50.5L633.1 63.2L633.4 77.1L636.5 91.6L642.6 106.1L651.5 119.9L663.1 132.4L676.9 143.1L692.6 151.5L709.7 157.4L727.4 160.4L745.3 160.5L762.6 157.8L778.8 152.4L793.3 144.6L805.6 134.8L815.4 123.6L822.4 111.4L826.4 99.0L827.5 87.0L825.8 75.9L821.6 66.4L815.2 59.0L807.1 54.0L797.9 51.7L788.2 52.5L778.6 56.1L769.8 62.7L762.3 71.9L756.6 83.4L753.3 96.8L752.6 111.5L754.8 126.9L759.8 142.4L767.8 157.4L778.4 171.2L791.5 183.4L806.4 193.3L822.8 200.8L840.1 205.5L857.6 207.2L874.7 206.1L890.8 202.2L905.4 195.9L917.8 187.5L927.8 177.5L935.0 166.4L939.3 155.0L940.6 143.7L939.1 133.3L934.9 124.3L928.5 117.3L920.3 112.6L910.9 110.7L900.7 111.6L890.6 115.5L881.0 122.3L872.7 131.9L866.0 143.8L861.6 157.7L859.7 173.0L860.7 189.2L864.5 205.6L871.3 221.6L880.8 236.6L892.7 250.1L906.7 261.4L922.2 270.4L938.8 276.5L955.7 279.8L972.3 280.2L988.1 277.8L1002.4 272.8L1014.8 265.7L1024.7 256.8L1032.0 246.8L1036.3 236.2L1037.6 225.6L1036.1 215.8L1031.8 207.2L1025.3 200.5L1016.7 196.0L1006.8 194.2L996.1 195.2L985.2 199.2L974.7 206.1L965.3 215.8L957.5 227.9L951.8 242.2L948.6 257.9L948.2 274.7L950.6 291.9L956.0 308.7L964.1 324.7L974.7 339.3L987.5 351.9L1002.0 362.1L1017.6 369.6L1033.7 374.3L1049.6 376.0L1064.9 374.8L1078.8 371.1L1090.8 365.1L1100.6 357.2L1107.6 348.0L1111.8 338.1L1113.0 328.1L1111.3 318.7L1106.8 310.4L1099.9 303.8L1090.9 299.4L1080.4 297.5L1069.0 298.4L1057.2 302.3L1045.7 309.1L1035.2 318.8L1026.1 330.9L1019.0 345.3L1014.3 361.3L1012.3 378.4L1013.2 396.1L1016.9 413.6L1023.5 430.4L1032.7 445.8L1044.1 459.4L1057.4 470.7L1071.8 479.3L1086.9 485.1L1102.1 487.9L1116.6 487.9L1129.9 485.2L1141.5 480.1L1150.9 473.1L1157.6 464.6L1161.5 455.2L1162.5 445.6L1160.5 436.4L1155.7 428.2L1148.3 421.5L1138.8 416.9L1127.7 414.8L1115.4 415.4L1102.7 419.0L1090.1 425.5L1078.3 434.8L1067.8 446.8L1059.2 461.0L1053.0 477.0L1049.4 494.2L1048.6 512.1L1050.7 530.0L1055.7 547.3L1063.3 563.4L1073.2 577.7L1085.0 589.8L1098.3 599.3L1112.3 606.0L1126.5 609.8L1140.2 610.6L1152.8 608.7L1163.8 604.4L1172.7 597.9L1179.1 589.9L1182.7 580.9L1183.3 571.4L1180.9 562.2L1175.7 553.9L1167.9 547.0L1157.8 542.0L1146.0 539.4L1132.9 539.5L1119.2 542.5L1105.5 548.5L1092.4 557.3L1080.5 568.7L1070.5 582.5L1062.6 598.2L1057.3 615.3L1054.8 633.1L1055.2 651.1L1058.5 668.7L1064.5 685.1L1072.9 699.9L1083.3 712.6L1095.2 722.7L1108.1 730.1L1121.2 734.5L1134.1 736.0L1146.0 734.7L1156.4 730.8L1164.8 724.8L1170.7 717.0L1173.9 708.1Z" stroke-opacity="0.36"/><path d="M957.0 600.0L956.0 594.3L953.2 589.0L948.6 584.5L942.4 581.2L935.0 579.2L926.6 578.9L917.6 580.5L908.4 583.9L899.5 589.2L891.2 596.2L883.8 604.9L877.7 614.9L873.2 626.0L870.4 637.8L869.4 649.8L870.3 661.8L873.0 673.3L877.4 683.8L883.1 693.2L890.1 701.1L897.8 707.3L905.9 711.6L914.1 714.1L921.9 714.6L928.9 713.4L934.9 710.7L939.4 706.6L942.2 701.6L943.2 695.9L942.3 690.1L939.5 684.4L934.9 679.2L928.6 675.1L920.8 672.2L912.0 670.8L902.3 671.2L892.3 673.4L882.2 677.5L872.6 683.4L863.8 691.0L856.1 700.1L849.8 710.4L845.1 721.6L842.3 733.3L841.3 745.1L842.2 756.6L844.8 767.4L848.9 777.1L854.4 785.5L860.8 792.3L867.9 797.2L875.2 800.3L882.4 801.5L889.0 800.8L894.7 798.5L899.1 794.7L902.0 789.7L903.1 784.0L902.3 777.7L899.7 771.5L895.1 765.6L888.8 760.5L880.9 756.4L871.8 753.8L861.7 752.7L851.0 753.5L840.0 756.1L829.3 760.6L819.2 766.9L810.1 774.7L802.2 784.0L795.9 794.2L791.3 805.2L788.5 816.4L787.7 827.6L788.6 838.2L791.2 848.0L795.2 856.5L800.4 863.6L806.5 869.0L813.0 872.5L819.6 874.0L825.8 873.7L831.2 871.6L835.6 867.9L838.6 862.9L840.0 856.9L839.5 850.2L837.2 843.3L832.9 836.5L826.8 830.3L819.0 825.0L809.8 820.9L799.5 818.3L788.4 817.4L776.9 818.4L765.4 821.2L754.3 825.8L744.0 832.1L734.8 840.0L727.0 849.0L720.9 858.9L716.5 869.3L714.1 879.8L713.5 890.0L714.7 899.5L717.4 908.0L721.5 915.1L726.6 920.6L732.4 924.3L738.4 926.1L744.3 926.0L749.7 924.0L754.2 920.3L757.4 915.2L759.2 908.8L759.2 901.6L757.4 894.0L753.6 886.2L748.0 878.8L740.6 872.1L731.7 866.5L721.5 862.3L710.3 859.6L698.5 858.8L686.6 859.8L674.8 862.6L663.6 867.2L653.4 873.4L644.5 881.0L637.1 889.6L631.5 898.9L627.7 908.5L625.8 918.0L625.7 927.0L627.3 935.2L630.4 942.2L634.7 947.7L639.9 951.4L645.6 953.3L651.3 953.3L656.8 951.4L661.5 947.6L665.2 942.3L667.5 935.6L668.2 927.9L667.1 919.5L664.2 910.8L659.3 902.3L652.7 894.2L644.4 887.1L634.6 881.1L623.7 876.7L612.1 873.9L600.0 873.0L587.9 873.9L576.3 876.7L565.4 881.1L555.6 887.1L547.3 894.2L540.7 902.3L535.8 910.8L532.9 919.5L531.8 927.9L532.5 935.6L534.8 942.3L538.5 947.6L543.2 951.4L548.7 953.3L554.4 953.3L560.1 951.4L565.3 947.7L569.6 942.2L572.7 935.2L574.3 927.0L574.2 918.0L572.3 908.5L568.5 898.9L562.9 889.6L555.5 881.0L546.6 873.4L536.4 867.2L525.2 862.6L513.4 859.8L501.5 858.8L489.7 859.6L478.5 862.3L468.3 866.5L459.4 872.1L452.0 878.8L446.4 886.2L442.6 894.0L440.8 901.6L440.8 908.8L442.6 915.2L445.8 920.3L450.3 924.0L455.7 926.0L461.6 926.1L467.6 924.3L473.4 920.6L478.5 915.1L482.6 908.0L485.3 899.5L486.5 890.0L485.9 879.8L483.5 869.3L479.1 858.9L473.0 849.0L465.2 840.0L456.0 832.1L445.7 825.8L434.6 821.2L423.1 818.4L411.6 817.4L400.5 818.3L390.2 820.9L381.0 825.0L373.2 830.3L367.1 836.5L362.8 843.3L360.5 850.2L360.0 856.9L361.4 862.9L364.4 867.9L368.8 871.6L374.2 873.7L380.4 874.0L387.0 872.5L393.5 869.0L399.6 863.6L404.8 856.5L408.8 848.0L411.4 838.2L412.3 827.6L411.5 816.4L408.7 805.2L404.1 794.2L397.8 784.0L389.9 774.7L380.8 766.9L370.7 760.6L360.0 756.1L349.0 753.5L338.3 752.7L328.2 753.8L319.1 756.4L311.2 760.5L304.9 765.6L300.3 771.5L297.7 777.7L296.9 784.0L298.0 789.7L300.9 794.7L305.3 798.5L311.0 800.8L317.6 801.5L324.8 800.3L332.1 797.2L339.2 792.3L345.6 785.5L351.1 777.1L355.2 767.4L357.8 756.6L358.7 745.1L357.7 733.3L354.9 721.6L350.2 710.4L343.9 700.1L336.2 691.0L327.4 683.4L317.8 677.5L307.7 673.4L297.7 671.2L288.0 670.8L279.2 672.2L271.4 675.1L265.1 679.2L260.5 684.4L257.7 690.1L256.8 695.9L257.8 701.6L260.6 706.6L265.1 710.7L271.1 713.4L278.1 714.6L285.9 714.1L294.1 711.6L302.2 707.3L309.9 701.1L316.9 693.2L322.6 683.8L327.0 673.3L329.7 661.8L330.6 649.8L329.6 637.8L326.8 626.0L322.3 614.9L316.2 604.9L308.8 596.2L300.5 589.2L291.6 583.9L282.4 580.5L273.4 578.9L265.0 579.2L257.6 581.2L251.4 584.5L246.8 589.0L244.0 594.3L243.0 600.0L244.0 605.7L246.8 611.0L251.4 615.5L257.6 618.8L265.0 620.8L273.4 621.1L282.4 619.5L291.6 616.1L300.5 610.8L308.8 603.8L316.2 595.1L322.3 585.1L326.8 574.0L329.6 562.2L330.6 550.2L329.7 538.2L327.0 526.7L322.6 516.2L316.9 506.8L309.9 498.9L302.2 492.7L294.1 488.4L285.9 485.9L278.1 485.4L271.1 486.6L265.1 489.3L260.6 493.4L257.8 498.4L256.8 504.1L257.7 509.9L260.5 515.6L265.1 520.8L271.4 524.9L279.2 527.8L288.0 529.2L297.7 528.8L307.7 526.6L317.8 522.5L327.4 516.6L336.2 509.0L343.9 499.9L350.2 489.6L354.9 478.4L357.7 466.7L358.7 454.9L357.8 443.4L355.2 432.6L351.1 422.9L345.6 414.5L339.2 407.7L332.1 402.8L324.8 399.7L317.6 398.5L311.0 399.2L305.3 401.5L300.9 405.3L298.0 410.3L296.9 416.0L297.7 422.3L300.3 428.5L304.9 434.4L311.2 439.5L319.1 443.6L328.2 446.2L338.3 447.3L349.0 446.5L360.0 443.9L370.7 439.4L380.8 433.1L389.9 425.3L397.8 416.0L404.1 405.8L408.7 394.8L411.5 383.6L412.3 372.4L411.4 361.8L408.8 352.0L404.8 343.5L399.6 336.4L393.5 331.0L387.0 327.5L380.4 326.0L374.2 326.3L368.8 328.4L364.4 332.1L361.4 337.1L360.0 343.1L360.5 349.8L362.8 356.7L367.1 363.5L373.2 369.7L381.0 375.0L390.2 379.1L400.5 381.7L411.6 382.6L423.1 381.6L434.6 378.8L445.7 374.2L456.0 367.9L465.2 360.0L473.0 351.0L479.1 341.1L483.5 330.7L485.9 320.2L486.5 310.0L485.3 300.5L482.6 292.0L478.5 284.9L473.4 279.4L467.6 275.7L461.6 273.9L455.7 274.0L450.3 276.0L445.8 279.7L442.6 284.8L440.8 291.2L440.8 298.4L442.6 306.0L446.4 313.8L452.0 321.2L459.4 327.9L468.3 333.5L478.5 337.7L489.7 340.4L501.5 341.2L513.4 340.2L525.2 337.4L536.4 332.8L546.6 326.6L555.5 319.0L562.9 310.4L568.5 301.1L572.3 291.5L574.2 282.0L574.3 273.0L572.7 264.8L569.6 257.8L565.3 252.3L560.1 248.6L554.4 246.7L548.7 246.7L543.2 248.6L538.5 252.4L534.8 257.7L532.5 264.4L531.8 272.1L532.9 280.5L535.8 289.2L540.7 297.7L547.3 305.8L555.6 312.9L565.4 318.9L576.3 323.3L587.9 326.1L600.0 327.0L612.1 326.1L623.7 323.3L634.6 318.9L644.4 312.9L652.7 305.8L659.3 297.7L664.2 289.2L667.1 280.5L668.2 272.1L667.5 264.4L665.2 257.7L661.5 252.4L656.8 248.6L651.3 246.7L645.6 246.7L639.9 248.6L634.7 252.3L630.4 257.8L627.3 264.8L625.7 273.0L625.8 282.0L627.7 291.5L631.5 301.1L637.1 310.4L644.5 319.0L653.4 326.6L663.6 332.8L674.8 337.4L686.6 340.2L698.5 341.2L710.3 340.4L721.5 337.7L731.7 333.5L740.6 327.9L748.0 321.2L753.6 313.8L757.4 306.0L759.2 298.4L759.2 291.2L757.4 284.8L754.2 279.7L749.7 276.0L744.3 274.0L738.4 273.9L732.4 275.7L726.6 279.4L721.5 284.9L717.4 292.0L714.7 300.5L713.5 310.0L714.1 320.2L716.5 330.7L720.9 341.1L727.0 351.0L734.8 360.0L744.0 367.9L754.3 374.2L765.4 378.8L776.9 381.6L788.4 382.6L799.5 381.7L809.8 379.1L819.0 375.0L826.8 369.7L832.9 363.5L837.2 356.7L839.5 349.8L840.0 343.1L838.6 337.1L835.6 332.1L831.2 328.4L825.8 326.3L819.6 326.0L813.0 327.5L806.5 331.0L800.4 336.4L795.2 343.5L791.2 352.0L788.6 361.8L787.7 372.4L788.5 383.6L791.3 394.8L795.9 405.8L802.2 416.0L810.1 425.3L819.2 433.1L829.3 439.4L840.0 443.9L851.0 446.5L861.7 447.3L871.8 446.2L880.9 443.6L888.8 439.5L895.1 434.4L899.7 428.5L902.3 422.3L903.1 416.0L902.0 410.3L899.1 405.3L894.7 401.5L889.0 399.2L882.4 398.5L875.2 399.7L867.9 402.8L860.8 407.7L854.4 414.5L848.9 422.9L844.8 432.6L842.2 443.4L841.3 454.9L842.3 466.7L845.1 478.4L849.8 489.6L856.1 499.9L863.8 509.0L872.6 516.6L882.2 522.5L892.3 526.6L902.3 528.8L912.0 529.2L920.8 527.8L928.6 524.9L934.9 520.8L939.5 515.6L942.3 509.9L943.2 504.1L942.2 498.4L939.4 493.4L934.9 489.3L928.9 486.6L921.9 485.4L914.1 485.9L905.9 488.4L897.8 492.7L890.1 498.9L883.1 506.8L877.4 516.2L873.0 526.7L870.3 538.2L869.4 550.2L870.4 562.2L873.2 574.0L877.7 585.1L883.8 595.1L891.2 603.8L899.5 610.8L908.4 616.1L917.6 619.5L926.6 621.1L935.0 620.8L942.4 618.8L948.6 615.5L953.2 611.0L956.0 605.7L957.0 600.0Z" stroke-opacity="0.3"/><path d="M956.1 625.5L955.5 619.7L953.1 614.3L948.8 609.5L942.9 605.7L935.6 603.2L927.3 602.3L918.2 603.2L908.8 605.9L899.5 610.6L890.7 617.0L882.7 625.1L876.0 634.7L870.6 645.4L867.0 657.0L865.2 668.9L865.2 680.9L867.1 692.5L870.7 703.4L875.8 713.2L882.1 721.6L889.4 728.3L897.2 733.2L905.2 736.2L912.9 737.3L920.0 736.6L926.1 734.3L930.9 730.5L934.1 725.7L935.5 720.2L935.0 714.2L932.6 708.4L928.4 702.9L922.4 698.3L914.9 694.9L906.1 692.9L896.5 692.6L886.3 694.0L876.0 697.4L866.0 702.6L856.6 709.6L848.3 718.1L841.3 728.0L835.8 738.8L832.2 750.2L830.3 761.9L830.4 773.4L832.2 784.4L835.6 794.4L840.5 803.2L846.5 810.4L853.2 815.8L860.2 819.4L867.3 821.1L873.9 820.9L879.8 819.0L884.4 815.5L887.7 810.8L889.2 805.1L888.9 798.9L886.7 792.4L882.6 786.2L876.6 780.7L869.1 776.1L860.1 772.8L850.1 771.0L839.4 771.0L828.3 772.9L817.3 776.6L806.8 782.1L797.1 789.3L788.6 797.9L781.5 807.7L776.2 818.3L772.6 829.3L770.9 840.4L771.1 851.1L773.0 861.0L776.4 869.8L781.1 877.2L786.8 883.0L793.0 887.0L799.4 889.0L805.7 889.1L811.3 887.4L815.9 884.1L819.3 879.3L821.0 873.4L821.1 866.7L819.2 859.6L815.4 852.5L809.8 845.9L802.4 840.0L793.5 835.3L783.4 832.0L772.4 830.3L760.9 830.4L749.2 832.4L737.8 836.2L727.0 841.8L717.3 849.0L708.9 857.4L702.1 866.8L697.0 876.9L693.8 887.2L692.5 897.4L693.0 906.9L695.1 915.6L698.7 923.0L703.4 928.8L708.9 932.9L714.8 935.2L720.7 935.5L726.2 933.9L730.9 930.5L734.5 925.6L736.7 919.4L737.3 912.2L736.0 904.4L732.8 896.5L727.7 888.7L720.9 881.5L712.4 875.2L702.5 870.3L691.5 866.8L679.8 865.1L667.8 865.3L655.9 867.3L644.4 871.1L633.8 876.5L624.3 883.4L616.3 891.5L610.1 900.3L605.6 909.7L603.0 919.0L602.3 928.0L603.3 936.3L605.9 943.5L609.9 949.3L614.7 953.4L620.3 955.7L626.0 956.0L631.6 954.5L636.5 951.1L640.6 946.1L643.4 939.6L644.7 931.9L644.2 923.5L641.9 914.6L637.6 905.7L631.6 897.2L623.8 889.5L614.5 882.9L603.9 877.7L592.5 874.1L580.5 872.3L568.4 872.4L556.6 874.3L545.4 877.9L535.3 883.2L526.5 889.7L519.2 897.2L513.8 905.4L510.2 913.9L508.6 922.2L508.7 929.9L510.6 936.8L513.9 942.4L518.3 946.4L523.6 948.7L529.3 949.2L535.1 947.7L540.5 944.3L545.2 939.1L548.8 932.4L551.0 924.4L551.6 915.4L550.4 905.7L547.3 895.9L542.3 886.2L535.6 877.1L527.2 868.9L517.5 862.0L506.7 856.6L495.1 852.9L483.2 851.1L471.4 851.1L460.1 852.9L449.6 856.5L440.3 861.4L432.5 867.6L426.4 874.5L422.1 882.0L419.7 889.5L419.2 896.7L420.5 903.1L423.4 908.5L427.6 912.5L432.8 914.9L438.7 915.4L444.8 914.1L450.9 910.8L456.3 905.7L460.9 898.8L464.3 890.6L466.1 881.2L466.3 870.9L464.6 860.3L461.0 849.6L455.6 839.3L448.5 829.7L439.9 821.3L430.0 814.2L419.3 808.8L408.0 805.2L396.6 803.4L385.4 803.5L374.9 805.3L365.5 808.8L357.4 813.5L350.8 819.3L346.1 825.8L343.2 832.5L342.3 839.1L343.2 845.2L345.9 850.5L350.0 854.4L355.3 856.9L361.5 857.7L368.1 856.6L374.8 853.6L381.3 848.6L387.0 842.0L391.6 833.7L394.9 824.1L396.6 813.6L396.5 802.4L394.6 791.0L390.8 779.7L385.2 769.1L378.0 759.3L369.4 750.8L359.8 743.9L349.4 738.6L338.7 735.2L328.1 733.7L317.9 734.0L308.6 736.0L300.5 739.5L293.8 744.1L288.8 749.7L285.7 755.7L284.6 761.9L285.3 767.7L287.8 772.9L291.9 777.0L297.4 779.7L303.9 780.8L311.2 780.2L318.7 777.6L326.1 773.2L333.0 766.9L339.1 758.9L343.9 749.5L347.3 738.9L349.0 727.5L348.8 715.7L346.8 703.8L343.0 692.3L337.5 681.6L330.4 672.0L322.1 663.7L313.0 657.1L303.2 652.3L293.4 649.4L283.8 648.4L274.8 649.1L266.9 651.4L260.3 655.2L255.3 659.9L252.1 665.4L250.8 671.2L251.4 676.9L253.9 682.1L258.1 686.5L263.8 689.7L270.7 691.4L278.6 691.4L286.9 689.5L295.3 685.8L303.5 680.2L310.9 672.8L317.4 663.8L322.5 653.6L326.0 642.3L327.7 630.5L327.6 618.4L325.7 606.4L321.9 595.1L316.6 584.6L309.8 575.5L302.0 567.8L293.5 561.9L284.6 557.9L275.7 555.7L267.4 555.4L259.8 556.8L253.4 559.7L248.5 563.9L245.3 568.9L243.9 574.5L244.5 580.3L246.9 585.7L251.2 590.5L257.1 594.3L264.4 596.8L272.7 597.7L281.8 596.8L291.2 594.1L300.5 589.4L309.3 583.0L317.3 574.9L324.0 565.3L329.4 554.6L333.0 543.0L334.8 531.1L334.8 519.1L332.9 507.5L329.3 496.6L324.2 486.8L317.9 478.4L310.6 471.7L302.8 466.8L294.8 463.8L287.1 462.7L280.0 463.4L273.9 465.7L269.1 469.5L265.9 474.3L264.5 479.8L265.0 485.8L267.4 491.6L271.6 497.1L277.6 501.7L285.1 505.1L293.9 507.1L303.5 507.4L313.7 506.0L324.0 502.6L334.0 497.4L343.4 490.4L351.7 481.9L358.7 472.0L364.2 461.2L367.8 449.8L369.7 438.1L369.6 426.6L367.8 415.6L364.4 405.6L359.5 396.8L353.5 389.6L346.8 384.2L339.8 380.6L332.7 378.9L326.1 379.1L320.2 381.0L315.6 384.5L312.3 389.2L310.8 394.9L311.1 401.1L313.3 407.6L317.4 413.8L323.4 419.3L330.9 423.9L339.9 427.2L349.9 429.0L360.6 429.0L371.7 427.1L382.7 423.4L393.2 417.9L402.9 410.7L411.4 402.1L418.5 392.3L423.8 381.7L427.4 370.7L429.1 359.6L428.9 348.9L427.0 339.0L423.6 330.2L418.9 322.8L413.2 317.0L407.0 313.0L400.6 311.0L394.3 310.9L388.7 312.6L384.1 315.9L380.7 320.7L379.0 326.6L378.9 333.3L380.8 340.4L384.6 347.5L390.2 354.1L397.6 360.0L406.5 364.7L416.6 368.0L427.6 369.7L439.1 369.6L450.8 367.6L462.2 363.8L473.0 358.2L482.7 351.0L491.1 342.6L497.9 333.2L503.0 323.1L506.2 312.8L507.5 302.6L507.0 293.1L504.9 284.4L501.3 277.0L496.6 271.2L491.1 267.1L485.2 264.8L479.3 264.5L473.8 266.1L469.1 269.5L465.5 274.4L463.3 280.6L462.7 287.8L464.0 295.6L467.2 303.5L472.3 311.3L479.1 318.5L487.6 324.8L497.5 329.7L508.5 333.2L520.2 334.9L532.2 334.7L544.1 332.7L555.6 328.9L566.2 323.5L575.7 316.6L583.7 308.5L589.9 299.7L594.4 290.3L597.0 281.0L597.7 272.0L596.7 263.7L594.1 256.5L590.1 250.7L585.3 246.6L579.7 244.3L574.0 244.0L568.4 245.5L563.5 248.9L559.4 253.9L556.6 260.4L555.3 268.1L555.8 276.5L558.1 285.4L562.4 294.3L568.4 302.8L576.2 310.5L585.5 317.1L596.1 322.3L607.5 325.9L619.5 327.7L631.6 327.6L643.4 325.7L654.6 322.1L664.7 316.8L673.5 310.3L680.8 302.8L686.2 294.6L689.8 286.1L691.4 277.8L691.3 270.1L689.4 263.2L686.1 257.6L681.7 253.6L676.4 251.3L670.7 250.8L664.9 252.3L659.5 255.7L654.8 260.9L651.2 267.6L649.0 275.6L648.4 284.6L649.6 294.3L652.7 304.1L657.7 313.8L664.4 322.9L672.8 331.1L682.5 338.0L693.3 343.4L704.9 347.1L716.8 348.9L728.6 348.9L739.9 347.1L750.4 343.5L759.7 338.6L767.5 332.4L773.6 325.5L777.9 318.0L780.3 310.5L780.8 303.3L779.5 296.9L776.6 291.5L772.4 287.5L767.2 285.1L761.3 284.6L755.2 285.9L749.1 289.2L743.7 294.3L739.1 301.2L735.7 309.4L733.9 318.8L733.7 329.1L735.4 339.7L739.0 350.4L744.4 360.7L751.5 370.3L760.1 378.7L770.0 385.8L780.7 391.2L792.0 394.8L803.4 396.6L814.6 396.5L825.1 394.7L834.5 391.2L842.6 386.5L849.2 380.7L853.9 374.2L856.8 367.5L857.7 360.9L856.8 354.8L854.1 349.5L850.0 345.6L844.7 343.1L838.5 342.3L831.9 343.4L825.2 346.4L818.7 351.4L813.0 358.0L808.4 366.3L805.1 375.9L803.4 386.4L803.5 397.6L805.4 409.0L809.2 420.3L814.8 430.9L822.0 440.7L830.6 449.2L840.2 456.1L850.6 461.4L861.3 464.8L871.9 466.3L882.1 466.0L891.4 464.0L899.5 460.5L906.2 455.9L911.2 450.3L914.3 444.3L915.4 438.1L914.7 432.3L912.2 427.1L908.1 423.0L902.6 420.3L896.1 419.2L888.8 419.8L881.3 422.4L873.9 426.8L867.0 433.1L860.9 441.1L856.1 450.5L852.7 461.1L851.0 472.5L851.2 484.3L853.2 496.2L857.0 507.7L862.5 518.4L869.6 528.0L877.9 536.3L887.0 542.9L896.8 547.7L906.6 550.6L916.2 551.6L925.2 550.9L933.1 548.6L939.7 544.8L944.7 540.1L947.9 534.6L949.2 528.8L948.6 523.1L946.1 517.9L941.9 513.5L936.2 510.3L929.3 508.6L921.4 508.6L913.1 510.5L904.7 514.2L896.5 519.8L889.1 527.2L882.6 536.2L877.5 546.4L874.0 557.7L872.3 569.5L872.4 581.6L874.3 593.6L878.1 604.9L883.4 615.4L890.2 624.5L898.0 632.2L906.5 638.1L915.4 642.1L924.3 644.3L932.6 644.6L940.2 643.2L946.6 640.3L951.5 636.1L954.7 631.1L956.1 625.5Z" stroke-opacity="0.3"/><path d="M953.4 650.8L953.2 645.0L951.2 639.4L947.2 634.3L941.6 630.1L934.5 627.1L926.3 625.6L917.2 625.9L907.6 627.9L898.0 631.9L888.7 637.7L880.2 645.2L872.8 654.3L866.7 664.6L862.3 675.9L859.6 687.7L858.8 699.6L859.8 711.4L862.6 722.5L867.0 732.6L872.7 741.4L879.5 748.6L886.9 754.0L894.7 757.6L902.3 759.3L909.4 759.1L915.7 757.2L920.7 753.8L924.3 749.2L926.1 743.8L926.0 737.9L924.1 731.8L920.2 726.1L914.5 721.1L907.3 717.1L898.7 714.5L889.1 713.5L878.8 714.2L868.3 716.8L858.0 721.3L848.1 727.6L839.2 735.5L831.5 744.9L825.3 755.3L820.8 766.4L818.2 777.9L817.4 789.4L818.4 800.5L821.2 810.7L825.4 819.8L830.8 827.4L837.1 833.4L843.9 837.4L850.9 839.6L857.5 839.9L863.4 838.4L868.3 835.3L871.9 830.8L873.8 825.2L874.0 819.0L872.2 812.4L868.6 805.9L863.0 799.9L855.8 794.8L847.1 790.9L837.3 788.4L826.6 787.7L815.4 788.7L804.1 791.6L793.2 796.4L783.1 802.9L774.0 810.9L766.2 820.1L760.1 830.3L755.8 841.0L753.4 851.9L752.8 862.6L753.9 872.7L756.7 881.7L760.9 889.5L766.1 895.6L772.1 900.0L778.3 902.5L784.5 903.1L790.2 901.8L795.1 898.8L798.8 894.2L801.0 888.4L801.5 881.8L800.1 874.6L796.9 867.3L791.7 860.2L784.8 853.8L776.3 848.5L766.4 844.4L755.5 842.0L744.0 841.3L732.2 842.5L720.6 845.5L709.5 850.3L699.2 856.7L690.3 864.5L682.8 873.5L677.0 883.1L673.1 893.2L671.1 903.2L670.9 912.8L672.4 921.6L675.4 929.2L679.7 935.4L684.9 939.9L690.6 942.5L696.4 943.2L702.1 942.0L707.0 939.0L711.0 934.4L713.6 928.3L714.6 921.2L713.9 913.4L711.3 905.2L706.8 897.1L700.5 889.4L692.4 882.6L682.9 876.9L672.2 872.7L660.7 870.2L648.7 869.4L636.7 870.6L625.0 873.5L614.0 878.2L604.0 884.4L595.5 891.9L588.6 900.3L583.5 909.3L580.2 918.4L578.9 927.4L579.3 935.7L581.4 943.0L584.9 949.1L589.5 953.5L594.8 956.2L600.5 957.0L606.2 955.9L611.4 952.8L615.8 948.1L619.1 941.8L620.9 934.2L621.0 925.8L619.3 916.8L615.7 907.6L610.3 898.7L603.0 890.5L594.2 883.2L584.1 877.2L573.0 872.9L561.1 870.2L549.1 869.4L537.1 870.5L525.7 873.3L515.2 877.8L506.0 883.7L498.2 890.7L492.2 898.5L488.1 906.7L485.8 914.8L485.4 922.6L486.8 929.5L489.7 935.3L493.8 939.7L498.9 942.4L504.6 943.2L510.5 942.2L516.1 939.2L521.2 934.4L525.2 927.9L528.0 920.1L529.2 911.1L528.7 901.4L526.3 891.3L522.1 881.3L516.0 871.8L508.2 863.0L499.0 855.4L488.6 849.3L477.3 844.8L465.6 842.1L453.9 841.3L442.4 842.3L431.7 845.1L422.1 849.4L413.8 854.9L407.2 861.5L402.4 868.6L399.5 875.9L398.5 883.0L399.3 889.6L401.8 895.1L405.7 899.4L410.8 902.1L416.6 903.1L422.8 902.2L429.1 899.3L434.9 894.6L440.0 888.2L443.9 880.2L446.4 870.9L447.3 860.7L446.3 850.0L443.5 839.1L438.9 828.4L432.5 818.3L424.5 809.3L415.2 801.6L404.8 795.4L393.8 791.0L382.6 788.4L371.5 787.7L360.9 788.8L351.2 791.5L342.7 795.7L335.8 801.0L330.6 807.1L327.3 813.6L325.9 820.1L326.4 826.3L328.6 831.7L332.5 836.0L337.6 838.8L343.7 840.0L350.4 839.4L357.3 836.8L364.1 832.4L370.2 826.2L375.5 818.3L379.4 808.9L381.9 798.5L382.6 787.4L381.5 775.8L378.5 764.4L373.7 753.3L367.2 743.1L359.3 734.0L350.1 726.4L340.2 720.4L329.8 716.2L319.3 713.9L309.1 713.5L299.7 714.8L291.3 717.7L284.3 721.9L279.0 727.1L275.4 732.9L273.8 739.0L274.1 744.8L276.2 750.1L280.1 754.5L285.4 757.7L291.8 759.3L299.1 759.1L306.7 757.1L314.5 753.2L321.8 747.4L328.4 739.9L333.9 730.8L338.0 720.5L340.5 709.3L341.2 697.5L340.1 685.5L337.1 673.8L332.3 662.7L326.0 652.5L318.3 643.7L309.6 636.5L300.3 631.0L290.6 627.4L281.1 625.7L272.2 625.8L264.1 627.6L257.2 630.8L251.9 635.2L248.3 640.4L246.6 646.1L246.8 651.8L248.9 657.2L252.8 661.9L258.3 665.5L265.1 667.6L272.9 668.2L281.3 667.0L290.0 663.8L298.5 658.8L306.5 652.0L313.5 643.5L319.3 633.7L323.6 622.7L326.2 611.0L327.0 598.9L325.9 586.9L323.0 575.2L318.4 564.5L312.3 554.8L305.1 546.6L297.0 540.1L288.4 535.5L279.7 532.7L271.4 531.8L263.7 532.6L257.2 535.1L252.0 538.9L248.4 543.7L246.6 549.2L246.8 555.0L248.8 560.6L252.8 565.7L258.4 569.9L265.5 572.9L273.7 574.4L282.8 574.1L292.4 572.1L302.0 568.1L311.3 562.3L319.8 554.8L327.2 545.7L333.3 535.4L337.7 524.1L340.4 512.3L341.2 500.4L340.2 488.6L337.4 477.5L333.0 467.4L327.3 458.6L320.5 451.4L313.1 446.0L305.3 442.4L297.7 440.7L290.6 440.9L284.3 442.8L279.3 446.2L275.7 450.8L273.9 456.2L274.0 462.1L275.9 468.2L279.8 473.9L285.5 478.9L292.7 482.9L301.3 485.5L310.9 486.5L321.2 485.8L331.7 483.2L342.0 478.7L351.9 472.4L360.8 464.5L368.5 455.1L374.7 444.7L379.2 433.6L381.8 422.1L382.6 410.6L381.6 399.5L378.8 389.3L374.6 380.2L369.2 372.6L362.9 366.6L356.1 362.6L349.1 360.4L342.5 360.1L336.6 361.6L331.7 364.7L328.1 369.2L326.2 374.8L326.0 381.0L327.8 387.6L331.4 394.1L337.0 400.1L344.2 405.2L352.9 409.1L362.7 411.6L373.4 412.3L384.6 411.3L395.9 408.4L406.8 403.6L416.9 397.1L426.0 389.1L433.8 379.9L439.9 369.7L444.2 359.0L446.6 348.1L447.2 337.4L446.1 327.3L443.3 318.3L439.1 310.5L433.9 304.4L427.9 300.0L421.7 297.5L415.5 296.9L409.8 298.2L404.9 301.2L401.2 305.8L399.0 311.6L398.5 318.2L399.9 325.4L403.1 332.7L408.3 339.8L415.2 346.2L423.7 351.5L433.6 355.6L444.5 358.0L456.0 358.7L467.8 357.5L479.4 354.5L490.5 349.7L500.8 343.3L509.7 335.5L517.2 326.5L523.0 316.9L526.9 306.8L528.9 296.8L529.1 287.2L527.6 278.4L524.6 270.8L520.3 264.6L515.1 260.1L509.4 257.5L503.6 256.8L497.9 258.0L493.0 261.0L489.0 265.6L486.4 271.7L485.4 278.8L486.1 286.6L488.7 294.8L493.2 302.9L499.5 310.6L507.6 317.4L517.1 323.1L527.8 327.3L539.3 329.8L551.3 330.6L563.3 329.4L575.0 326.5L586.0 321.8L596.0 315.6L604.5 308.1L611.4 299.7L616.5 290.7L619.8 281.6L621.1 272.6L620.7 264.3L618.6 257.0L615.1 250.9L610.5 246.5L605.2 243.8L599.5 243.0L593.8 244.1L588.6 247.2L584.2 251.9L580.9 258.2L579.1 265.8L579.0 274.2L580.7 283.2L584.3 292.4L589.7 301.3L597.0 309.5L605.8 316.8L615.9 322.8L627.0 327.1L638.9 329.8L650.9 330.6L662.9 329.5L674.3 326.7L684.8 322.2L694.0 316.3L701.8 309.3L707.8 301.5L711.9 293.3L714.2 285.2L714.6 277.4L713.2 270.5L710.3 264.7L706.2 260.3L701.1 257.6L695.4 256.8L689.5 257.8L683.9 260.8L678.8 265.6L674.8 272.1L672.0 279.9L670.8 288.9L671.3 298.6L673.7 308.7L677.9 318.7L684.0 328.2L691.8 337.0L701.0 344.6L711.4 350.7L722.7 355.2L734.4 357.9L746.1 358.7L757.6 357.7L768.3 354.9L777.9 350.6L786.2 345.1L792.8 338.5L797.6 331.4L800.5 324.1L801.5 317.0L800.7 310.4L798.2 304.9L794.3 300.6L789.2 297.9L783.4 296.9L777.2 297.8L770.9 300.7L765.1 305.4L760.0 311.8L756.1 319.8L753.6 329.1L752.7 339.3L753.7 350.0L756.5 360.9L761.1 371.6L767.5 381.7L775.5 390.7L784.8 398.4L795.2 404.6L806.2 409.0L817.4 411.6L828.5 412.3L839.1 411.2L848.8 408.5L857.3 404.3L864.2 399.0L869.4 392.9L872.7 386.4L874.1 379.9L873.6 373.7L871.4 368.3L867.5 364.0L862.4 361.2L856.3 360.0L849.6 360.6L842.7 363.2L835.9 367.6L829.8 373.8L824.5 381.7L820.6 391.1L818.1 401.5L817.4 412.6L818.5 424.2L821.5 435.6L826.3 446.7L832.8 456.9L840.7 466.0L849.9 473.6L859.8 479.6L870.2 483.8L880.7 486.1L890.9 486.5L900.3 485.2L908.7 482.3L915.7 478.1L921.0 472.9L924.6 467.1L926.2 461.0L925.9 455.2L923.8 449.9L919.9 445.5L914.6 442.3L908.2 440.7L900.9 440.9L893.3 442.9L885.5 446.8L878.2 452.6L871.6 460.1L866.1 469.2L862.0 479.5L859.5 490.7L858.8 502.5L859.9 514.5L862.9 526.2L867.7 537.3L874.0 547.5L881.7 556.3L890.4 563.5L899.7 569.0L909.4 572.6L918.9 574.3L927.8 574.2L935.9 572.4L942.8 569.2L948.1 564.8L951.7 559.6L953.4 553.9L953.2 548.2L951.1 542.8L947.2 538.1L941.7 534.5L934.9 532.4L927.1 531.8L918.7 533.0L910.0 536.2L901.5 541.2L893.5 548.0L886.5 556.5L880.7 566.3L876.4 577.3L873.8 589.0L873.0 601.1L874.1 613.1L877.0 624.8L881.6 635.5L887.7 645.2L894.9 653.4L903.0 659.9L911.6 664.5L920.3 667.3L928.6 668.2L936.3 667.4L942.8 664.9L948.0 661.1L951.6 656.3L953.4 650.8Z" stroke-opacity="0.3"/><path d="M948.8 675.9L949.1 670.1L947.4 664.4L943.9 659.0L938.6 654.4L931.7 650.9L923.6 648.8L914.5 648.4L904.8 649.8L895.0 653.1L885.3 658.2L876.3 665.1L868.2 673.6L861.4 683.5L856.2 694.4L852.7 706.0L851.0 717.8L851.2 729.6L853.2 740.9L856.8 751.3L861.9 760.5L868.2 768.1L875.2 774.1L882.7 778.2L890.2 780.4L897.3 780.8L903.7 779.3L909.0 776.3L912.8 772.0L915.0 766.7L915.4 760.8L913.8 754.6L910.4 748.6L905.1 743.2L898.2 738.7L889.8 735.5L880.3 733.8L870.0 733.8L859.3 735.7L848.6 739.4L838.4 745.0L828.9 752.3L820.6 761.0L813.7 770.9L808.4 781.8L804.9 793.1L803.3 804.5L803.6 815.6L805.6 826.0L809.1 835.3L814.0 843.3L819.9 849.7L826.4 854.2L833.1 856.9L839.7 857.7L845.8 856.6L850.9 853.8L854.7 849.6L857.1 844.2L857.7 838.0L856.4 831.3L853.2 824.6L848.1 818.2L841.3 812.6L832.9 808.0L823.2 804.9L812.6 803.3L801.4 803.6L789.9 805.7L778.7 809.7L768.1 815.4L758.5 822.7L750.1 831.4L743.3 841.1L738.2 851.5L735.0 862.2L733.6 872.8L734.1 883.0L736.2 892.2L739.8 900.2L744.6 906.7L750.2 911.5L756.3 914.4L762.4 915.5L768.2 914.6L773.3 911.9L777.3 907.6L779.9 902.0L780.8 895.4L780.0 888.2L777.3 880.6L772.7 873.2L766.2 866.4L758.1 860.4L748.6 855.7L737.9 852.5L726.4 851.0L714.6 851.3L702.8 853.4L691.3 857.4L680.7 863.1L671.2 870.3L663.1 878.7L656.6 887.9L652.0 897.6L649.2 907.5L648.4 917.1L649.3 925.9L651.7 933.7L655.6 940.2L660.4 945.0L665.9 948.1L671.7 949.2L677.4 948.4L682.6 945.8L686.8 941.4L689.9 935.6L691.4 928.6L691.3 920.7L689.3 912.3L685.3 903.9L679.6 895.8L672.0 888.4L663.0 882.1L652.6 877.2L641.3 873.8L629.4 872.2L617.3 872.5L605.4 874.6L594.1 878.5L583.7 884.0L574.7 890.8L567.2 898.7L561.5 907.3L557.6 916.2L555.6 925.0L555.4 933.4L557.0 940.8L560.0 947.1L564.3 951.9L569.4 954.9L575.1 956.1L580.8 955.4L586.2 952.8L590.9 948.3L594.6 942.3L597.0 934.9L597.7 926.5L596.7 917.3L593.7 908.0L588.9 898.7L582.3 889.9L574.1 882.1L564.4 875.4L553.6 870.2L542.0 866.8L530.0 865.1L518.0 865.3L506.4 867.3L495.6 871.1L486.0 876.3L477.8 882.7L471.2 890.1L466.5 897.9L463.6 905.9L462.7 913.6L463.5 920.6L466.0 926.6L469.9 931.3L474.8 934.3L480.4 935.6L486.3 934.9L492.1 932.3L497.5 927.9L502.0 921.8L505.4 914.1L507.2 905.3L507.4 895.5L505.7 885.3L502.2 875.1L496.8 865.1L489.7 855.8L481.0 847.6L471.1 840.7L460.2 835.4L448.7 831.9L437.0 830.3L425.5 830.5L414.6 832.4L404.7 836.0L396.1 841.0L389.1 847.0L383.8 853.8L380.3 860.9L378.8 867.9L379.2 874.5L381.2 880.2L384.8 884.8L389.7 887.9L395.4 889.2L401.7 888.8L408.1 886.4L414.3 882.1L419.8 876.0L424.3 868.3L427.5 859.3L429.1 849.2L428.9 838.4L426.9 827.3L423.0 816.3L417.3 805.8L410.0 796.2L401.2 787.9L391.4 781.0L380.7 775.8L369.7 772.4L358.6 770.9L348.0 771.2L338.2 773.3L329.4 776.8L322.2 781.6L316.5 787.3L312.8 793.6L310.9 800.0L310.9 806.2L312.8 811.7L316.3 816.3L321.2 819.5L327.2 821.1L334.0 821.0L341.0 818.9L348.1 815.0L354.7 809.2L360.5 801.7L365.1 792.7L368.3 782.5L369.8 771.4L369.5 759.8L367.3 748.1L363.3 736.8L357.6 726.1L350.3 716.5L341.8 708.2L332.3 701.5L322.2 696.7L311.8 693.6L301.7 692.5L292.2 693.1L283.7 695.4L276.4 699.1L270.7 703.9L266.8 709.4L264.7 715.3L264.6 721.2L266.4 726.7L269.9 731.3L274.9 734.8L281.2 736.9L288.5 737.2L296.3 735.8L304.3 732.4L312.0 727.2L319.1 720.1L325.3 711.5L330.1 701.5L333.4 690.5L334.9 678.8L334.6 666.7L332.5 654.8L328.5 643.4L322.9 632.9L315.9 623.5L307.8 615.7L298.8 609.6L289.5 605.3L280.1 602.9L271.2 602.3L263.0 603.5L255.9 606.3L250.3 610.3L246.3 615.2L244.2 620.8L244.0 626.5L245.7 632.0L249.3 637.0L254.5 640.9L261.1 643.6L268.8 644.7L277.3 644.0L286.2 641.5L295.1 637.2L303.5 630.9L311.2 623.0L317.7 613.6L322.7 602.9L326.1 591.4L327.8 579.4L327.5 567.3L325.5 555.5L321.6 544.5L316.3 534.4L309.6 525.7L302.0 518.7L293.8 513.4L285.4 510.0L277.1 508.5L269.4 508.8L262.7 510.8L257.2 514.2L253.3 518.8L251.2 524.1L250.9 529.9L252.6 535.6L256.1 541.0L261.4 545.6L268.3 549.1L276.4 551.2L285.5 551.6L295.2 550.2L305.0 546.9L314.7 541.8L323.7 534.9L331.8 526.4L338.6 516.5L343.8 505.6L347.3 494.0L349.0 482.2L348.8 470.4L346.8 459.1L343.2 448.7L338.1 439.5L331.8 431.9L324.8 425.9L317.3 421.8L309.8 419.6L302.7 419.2L296.3 420.7L291.0 423.7L287.2 428.0L285.0 433.3L284.6 439.2L286.2 445.4L289.6 451.4L294.9 456.8L301.8 461.3L310.2 464.5L319.7 466.2L330.0 466.2L340.7 464.3L351.4 460.6L361.6 455.0L371.1 447.7L379.4 439.0L386.3 429.1L391.6 418.2L395.1 406.9L396.7 395.5L396.4 384.4L394.4 374.0L390.9 364.7L386.0 356.7L380.1 350.3L373.6 345.8L366.9 343.1L360.3 342.3L354.2 343.4L349.1 346.2L345.3 350.4L342.9 355.8L342.3 362.0L343.6 368.7L346.8 375.4L351.9 381.8L358.7 387.4L367.1 392.0L376.8 395.1L387.4 396.7L398.6 396.4L410.1 394.3L421.3 390.3L431.9 384.6L441.5 377.3L449.9 368.6L456.7 358.9L461.8 348.5L465.0 337.8L466.4 327.2L465.9 317.0L463.8 307.8L460.2 299.8L455.4 293.3L449.8 288.5L443.7 285.6L437.6 284.5L431.8 285.4L426.7 288.1L422.7 292.4L420.1 298.0L419.2 304.6L420.0 311.8L422.7 319.4L427.3 326.8L433.8 333.6L441.9 339.6L451.4 344.3L462.1 347.5L473.6 349.0L485.4 348.7L497.2 346.6L508.7 342.6L519.3 336.9L528.8 329.7L536.9 321.3L543.4 312.1L548.0 302.4L550.8 292.5L551.6 282.9L550.7 274.1L548.3 266.3L544.4 259.8L539.6 255.0L534.1 251.9L528.3 250.8L522.6 251.6L517.4 254.2L513.2 258.6L510.1 264.4L508.6 271.4L508.7 279.3L510.7 287.7L514.7 296.1L520.4 304.2L528.0 311.6L537.0 317.9L547.4 322.8L558.7 326.2L570.6 327.8L582.7 327.5L594.6 325.4L605.9 321.5L616.3 316.0L625.3 309.2L632.8 301.3L638.5 292.7L642.4 283.8L644.4 275.0L644.6 266.6L643.0 259.2L640.0 252.9L635.7 248.1L630.6 245.1L624.9 243.9L619.2 244.6L613.8 247.2L609.1 251.7L605.4 257.7L603.0 265.1L602.3 273.5L603.3 282.7L606.3 292.0L611.1 301.3L617.7 310.1L625.9 317.9L635.6 324.6L646.4 329.8L658.0 333.2L670.0 334.9L682.0 334.7L693.6 332.7L704.4 328.9L714.0 323.7L722.2 317.3L728.8 309.9L733.5 302.1L736.4 294.1L737.3 286.4L736.5 279.4L734.0 273.4L730.1 268.7L725.2 265.7L719.6 264.4L713.7 265.1L707.9 267.7L702.5 272.1L698.0 278.2L694.6 285.9L692.8 294.7L692.6 304.5L694.3 314.7L697.8 324.9L703.2 334.9L710.3 344.2L719.0 352.4L728.9 359.3L739.8 364.6L751.3 368.1L763.0 369.7L774.5 369.5L785.4 367.6L795.3 364.0L803.9 359.0L810.9 353.0L816.2 346.2L819.7 339.1L821.2 332.1L820.8 325.5L818.8 319.8L815.2 315.2L810.3 312.1L804.6 310.8L798.3 311.2L791.9 313.6L785.7 317.9L780.2 324.0L775.7 331.7L772.5 340.7L770.9 350.8L771.1 361.6L773.1 372.7L777.0 383.7L782.7 394.2L790.0 403.8L798.8 412.1L808.6 419.0L819.3 424.2L830.3 427.6L841.4 429.1L852.0 428.8L861.8 426.7L870.6 423.2L877.8 418.4L883.5 412.7L887.2 406.4L889.1 400.0L889.1 393.8L887.2 388.3L883.7 383.7L878.8 380.5L872.8 378.9L866.0 379.0L859.0 381.1L851.9 385.0L845.3 390.8L839.5 398.3L834.9 407.3L831.7 417.5L830.2 428.6L830.5 440.2L832.7 451.9L836.7 463.2L842.4 473.9L849.7 483.5L858.2 491.8L867.7 498.5L877.8 503.3L888.2 506.4L898.3 507.5L907.8 506.9L916.3 504.6L923.6 500.9L929.3 496.1L933.2 490.6L935.3 484.7L935.4 478.8L933.6 473.3L930.1 468.7L925.1 465.2L918.8 463.1L911.5 462.8L903.7 464.2L895.7 467.6L888.0 472.8L880.9 479.9L874.7 488.5L869.9 498.5L866.6 509.5L865.1 521.2L865.4 533.3L867.5 545.2L871.5 556.6L877.1 567.1L884.1 576.5L892.2 584.3L901.2 590.4L910.5 594.7L919.9 597.1L928.8 597.7L937.0 596.5L944.1 593.7L949.7 589.7L953.7 584.8L955.8 579.2L956.0 573.5L954.3 568.0L950.7 563.0L945.5 559.1L938.9 556.4L931.2 555.3L922.7 556.0L913.8 558.5L904.9 562.8L896.5 569.1L888.8 577.0L882.3 586.4L877.3 597.1L873.9 608.6L872.2 620.6L872.5 632.7L874.5 644.5L878.4 655.5L883.7 665.6L890.4 674.3L898.0 681.3L906.2 686.6L914.6 690.0L922.9 691.5L930.6 691.2L937.3 689.2L942.8 685.8L946.7 681.2L948.8 675.9Z" stroke-opacity="0.3"/></svg>